<svg version="1" xmlns="http://www.w3.org/2000/svg" width="694.667" height="694.667" viewBox="0 0 521.000000 521.000000"><path d="M119.1 110.2c-33.9 2.2-60.3 13-78.2 32-13.6 14.5-20 31.9-20.1 54.3-.1 20.1 3.8 34.8 12.8 49 3.9 6.2 14 17.6 14.8 16.8.6-.6 1 1.3.7 3-.1.5.3.6.9.2.5-.3 3.8 1.7 7.2 4.5 8.1 6.5 7.6 6.1 12.3 9 2.2 1.3 4.2 2.7 4.5 3 .3.3 2.7 1.7 5.4 3 2.6 1.4 5 3.1 5.3 3.7.3.7.9 1 1.4.7.5-.3.9 0 .9.6s.5.8 1 .5c.6-.3 1-.1 1 .4 0 .6.3 1 .8 1 1.9-.3 3.3.3 5.3 2.3 1.2 1.3 1.9 1.7 1.5 1.1-.5-.9-.2-1.1.9-.7 1.3.5 1.3.9.3 2.2-1.1 1.3-1 1.4.6.5 2.5-1.4 9.8 1.5 9.1 3.6-.4 1-.2 1.1.7.4 1.5-1.1 6.2.9 5 2.2-.4.5-.1.5.6.1 1.5-.9 7.2 1.2 7.2 2.6 0 .6.7.8 1.5.4.8-.3 1.5-.1 1.5.5s.4.8.8.5c1.1-.7 7.2 3.1 7.2 4.4 0 .5.5 1 1.1 1 .5 0 .7-.5.3-1.2-.4-.7.6-.2 2.3 1 1.7 1.2 3.4 2.2 3.7 2.2.7 0 2.4 1.3 5.7 4.2 1 1 2.3 1.8 2.7 1.8 1.5 0 4.2 3.6 3.5 4.5-.5.4-.3.5.4.1 1.5-.8 5 4.1 7.5 10.7 2.2 6 3 18.2 1.7 25.3-2.9 15.6-14.7 27.5-31.9 31.9-6.3 1.6-25.6 2.2-32.5 1-9.5-1.7-17.5-3.7-17-4.4.2-.5-.7-.7-2.1-.5-2 .2-2.4-.1-1.9-1.4.5-1.3.3-1.4-.6-.5-1.7 1.7-6.2-.5-5.6-2.9.3-1 .1-2.1-.4-2.4-1.1-.7-1.2-3.4-.1-3.4.5 0 .9.7 1 1.5.1.8.3 2.2.4 3 .1.8.5 1.5 1 1.5s.6-.9.3-2c-.5-1.4-.2-2 1-2 1 0 1.3.5.9 1.2s-.3.8.4.4c1.7-1.1 1.5-1.5-1.3-2.6-1.4-.5-2.5-1.4-2.5-2 0-.6.4-.9.9-.5.5.3 1.3 0 1.7-.6.4-.8.3-.9-.4-.5s-1.2.2-1.2-.3c0-.6-.5-1.1-1-1.1-.6 0-.9.5-.8 1.1.2.6-.2 1.3-.7 1.5-.6.2-1.1-1.3-1.3-3.3-.1-2.1-.3-5-.4-6.6-.1-1.5-.4-2.7-.8-2.7s-.7-.7-.7-1.5c0-.9.5-1.4 1.1-1.2.6.2 1.1.9 1.1 1.5 0 .7.3 1.2.8 1.2 3.1 0 3.2 0 2-.8-.8-.5-.9-1.3-.3-2.2 1.3-2 1.2-3 0-3-.6 0-.9.3-.9.7.3 2-.2 3.4-1 2.9-1.3-.8-.7-3.6 1-4.7 1.1-.7 1.1-.9-.3-.9-1.6 0-2.3 1.1-1.9 3.2 0 .5-.3.8-.9.8-.9 0-1.2-1.4-1.3-6.8-.1-1.2-.4-2.2-.9-2.2-.4 0-.6-1.5-.4-3.4.1-1.9-.2-3.3-.6-3-.5.3-.7-.6-.4-2 .3-1.4 0-2.6-.5-2.6s-.9-1-.9-2.3c0-1.2-.3-3.2-.6-4.5-.6-2.2-.7-2.2-21.5-2.2H18l-.1 3.2c-.1 1.8-.3 5.3-.4 7.8-.2 2.5-.6 11.9-.9 21-.4 9.1-.9 20.6-1.2 25.7l-.5 9.2 7.3 4c4 2.2 7.9 4.5 8.6 5.1.6.6 1.2.8 1.2.3 0-.4.7.2 1.6 1.3.8 1 1.2 1.3.8.5-.5-1-.1-1.1 1.7-.6 1.3.4 2.9 1.2 3.4 1.7.6.6.3.7-1 .3-1.6-.5-1.7-.5-.5.3 1 .8 1.8.8 2.7 0 1.6-1.3 1.7.4.1 2-.7.7-.9 1.2-.6 1.2.4 0 1.4-.8 2.4-1.7 1.7-1.7 1.7-1.6 1.1 1.2-.6 2.6-.6 2.7.4 1 .7-1.1 1.3-2.2 1.5-2.3.1-.2 1.8.1 3.7.7 3.4 1.1 5.9 4.1 3.5 4.1-.6 0-.8.3-.5.7.4.3 1.6-.2 2.6-1.1 1.1-1 2.5-1.5 3.1-1.1.6.4 2.5.9 4.3 1.1 6.4.9 7.1 1.1 7.5 2.5.3 1.2.2 1.2-.6 0-.8-1.1-1-1.1-1.5 0-.4 1-.6 1-.6.1-.1-.6-.6-1.2-1.1-1.2-.6 0-.4 1 .5 2.3.8 1.3 1.3 2.6 1 2.9-.3.2.2.5 1 .5 1.1 0 1.2-.4.5-1.1-1.7-1.7-1.1-2.9.7-1.5 1.4 1.2 1.6 1.2.8 0-.6-1.1-.3-1.3 1.6-.7 1.3.4 3 .8 3.7.8.6.1 1.2.6 1.2 1.1 0 .5.6.4 1.4-.2 1.2-1 1.7-.8 2.6.8.6 1.2.7 2.1.1 2.1-.5 0-1.2-.5-1.4-1-.3-.6-.4-.5-.3.2.1.7 1.4 1.4 2.8 1.5l2.6.2-2.5-2.7c-1.5-1.6-3.5-2.7-4.9-2.6-1.3.1-2.4-.3-2.4-.7 0-.5 1.5-.6 3.2-.4 1.8.3 4.7.7 6.3.8 4 .4 5.5 1.4 4.9 3.1-.3.8 0 1.7.6 2.1.8.5.7 1.1-.2 2.3-1.2 1.5-1.1 1.6.5.3.9-.7 1.7-1 1.7-.5s.7-.2 1.6-1.4c.9-1.4 2.2-2.1 3.1-1.8.8.3 2.4 0 3.6-.6 3-1.7 5.8-1.8 7.4-.3.7.7 2.3 1.1 3.5.8 2.2-.4 2.2-.4.4 1.1-1.1.9-1.7 1.8-1.4 2.1.3.3 1.3-.2 2.3-1.1 1.6-1.6 1.6-1.9.1-2.9-1.3-1-1.1-1.2 1.2-1.3 2.1 0 3.3.7 4.4 2.6.8 1.5 1.3 3.4 1.1 4.2-.4 1.3-.3 1.3.6 0 .5-.8.7-1.8.5-2.2-.6-1 1-1.1 1.9-.1.4.3.2 1.2-.4 2-.9.9-.8 1.3 0 1.3.6 0 1.1-.6 1.1-1.3 0-.8.4-.7 1 .3.5.8 1 1 1 .4s-.7-1.7-1.5-2.4-1.5-1.8-1.5-2.4c0-.6 1.2.2 2.5 1.7 1.4 1.5 2.5 2.5 2.5 2.1 0-.4-.7-1.6-1.7-2.6-.9-1-1.1-1.8-.5-1.8.6 0 1.9 1.1 2.7 2.4.9 1.3 2.4 2.7 3.3 3 1.3.5 1.3.3-.2-.9-1.1-.8-1.7-1.7-1.4-2.1.9-.8 4.9 1.6 4.3 2.6-.3.5 0 1.2.6 1.6.8.4.9.3.5-.4s-.1-1.2.6-1.2c1 0 1-.2-.1-.9-1.6-1-2.3-5.1-.9-5.1.4 0 .8.5.8 1.1 0 .5.4.7 1 .4.5-.3 1-.1 1 .4 0 .6-.5 1.1-1.2 1.1-2 0-.2 1.1 2.6 1.6 2.2.4 2.7.1 2.6-1.3-.4-3.2 0-4.4 1-3.8.6.4.8 1 .6 1.3-.2.4.2 1.8 1 3.2l1.5 2.5-.7-2.5c-.6-2.2-.5-2.3 1-1.1 1 .8 1.4 2.1 1.1 3-.4 1.2-.3 1.3.5.5 1.1-1.1.4-4.4-1.1-4.4-.4 0-.6-.7-.2-1.6.4-1.2.9-1 2.3 1.2 1 1.5 1.6 3.4 1.3 4.3-.4 1.3-.3 1.4.5.2.7-.9.7-2.1.2-3.2-.5-.9-.7-1.9-.4-2.2.3-.3.1-1.4-.5-2.4-.8-1.4-1-1.4-1.1-.3 0 1.3-.1 1.3-1 0-.5-.8-1-1-1-.5 0 1-2.4 1.4-11.7 1.7-4.1.2-5 .5-4.1 1.5.7.9.7 1.3-.1 1.3-.6 0-1.4-.7-1.8-1.6-.5-1.3-.7-1.3-1.4-.2-.7 1-.9 1.1-.9 0 0-.8-.5-1-1.3-.5-1.7 1-6.7 1.1-6.7 0 0-.5 1.2-.8 2.8-.7 1.5.1 2.9.1 3.2 0 .3-.1 3.2-.4 6.5-.6 3.3-.2 8-.6 10.5-1 2.5-.3 5.4-.7 6.5-.8 1.1 0 2.3-.6 2.7-1.1.5-.6.8-.5.8.4 0 1.1.3 1.1 1.5.1.9-.7 1.9-1 2.2-.6 1.3 1.2 1.1 3.5-.2 4-.9.3-1.2-.2-1-1.5.3-1.6.1-1.8-.9-1-.7.6-1.7.7-2.2.3-.4-.4-.3 0 .4.9s1 2.4.6 3.3c-.3.9-.1 1.6.6 1.6.6 0 .9-.4.6-.9-.3-.5.1-1.1.9-1.5.8-.3 1.9.3 2.5 1.2.9 1.4 1 1.2.4-.8l-.7-2.5 2.2 1.9c1.5 1.4 2 1.5 1.6.5-.4-1 .1-1.5 1.6-1.6 1.6-.2 1.8.1.9 1.2-1.4 1.6.1 2.7 2 1.4 1.1-.6 1.2-.9.2-.9-.7 0-1.1-.4-.7-.9.3-.6-.2-1.4-1.1-1.9-1.1-.6-1.3-1.1-.5-1.6.6-.4 2 .7 3.2 2.6 1.2 1.8 1.9 2.5 1.6 1.6-.3-.9.2-2.2 1-3 1.4-1.1 1.6-1.1 1.1.3-.3.9-.2 2.2.4 3 .8 1.2.9 1.1.5-.2-.3-.8.4-2.6 1.4-4 2-2.6 2.5-1.9.8 1.3-.6 1.1-.7 2.4-.2 2.9.5.5.9.1 1-.9.1-.9.3-2.6.5-3.7.2-1.3-.2-1.9-1.1-1.7-.8.2-1.1-.3-.8-1.1.3-.8 0-2-.6-2.7-.9-1-.7-1.1 1.2-.5 1.8.5 2.2.4 1.6-.5-.5-.9-.4-1.1.3-.6.7.4 1.2.3 1.2-.2 0-.6.8-1.3 1.7-1.6 1-.4 1.4-.4 1 0-1.3 1.3 2.6 3.3 4.6 2.3.9-.6 1.7-.6 1.6-.2-.1.4-.1 1.5 0 2.3.1 1.3.3 1.3 1 .1.5-.8.6-2.1.3-3-.5-1.4-.3-1.4 1.1-.3.9.8 2.1 1 2.8.6.7-.4 1-.2.7.7-.3.8-1 1.3-1.5 1.2-.5-.1-1.4.7-2.1 1.8-.7 1.1-.8 1.9-.2 1.9.5 0 1-.5 1-1.1 0-.6.7-.8 1.6-.5.8.3 1.2.2.9-.4-.3-.5.7-1.6 2.2-2.5 1.9-1 2.2-1.4.9-1.3-1 .2-2.1-.2-2.3-.8-.2-.7.4-1.1 1.4-1 1.3.1 1.7-.5 1.5-1.8-.3-1.6-.1-1.8 1.1-.8.9.8 1.3 2.5 1 4.9-.2 2.1-.1 3.5.2 3.2.3-.3.7-2 .9-3.7.5-4.6 4.6-8.8 4.6-4.8 0 2 1.7 2.9 2.6 1.5.4-.7.3-.9-.3-.6-.6.4-1.3-.2-1.6-1.3-.6-2.5 0-2.5 2.7-.3 2.1 1.8 2.1 1.8.4-.3-2.4-2.8-2.3-4.1.2-1.9 1.1 1 2 1.3 2 .7 0-.7-.5-1.2-1.1-1.2-.5 0-.8-.4-.5-.9.9-1.3 4.2-.6 3.8.9-.1.6.2.9.8.5.8-.5.8-1.1-.1-2.1-.6-.7-1.5-1.1-2-.8-.5.3-.9 0-.9-.5 0-.6.7-1.1 1.6-1.1 1 0 1.4-.6 1-1.5-1-2.7 2.5-1.3 3.8 1.5.3.8.4.4.2-.9-.4-1.7.4-3.4 2.4-5.7 1.7-2 3-2.8 3.3-2.1.2.7.2.1 0-1.2-.4-2.1-.2-2.3 1-1.2 2.5 2 2.9-.5.7-4.1-2.4-4-2.5-4.5-.5-4.5.9 0 1.4.6 1.1 1.3-.2.6.2 2 1 3.1 1.4 1.7 1.4 1.7.7-.1-.4-1.4-.3-1.7.6-1.2.6.4 1.1.4 1-.1-.3-2 .2-2.7 1.1-1.3.5.8 1 1 1 .4s-.9-1.9-2-2.9c-1.4-1.3-2-1.4-2-.5 0 .7-.2 1.1-.5.8-.3-.3-.3-1.3.1-2.2.5-1.2 1-1.4 2-.5.7.6 1.9.7 2.5.3.9-.5 1-.2.6 1-.4 1-.3 1.5.3 1.1.6-.3 1-.1 1 .6s.3 1 .6.6c.4-.3-.3-2.1-1.5-4-2.5-4.1-2.6-4.8-.5-4 1.1.4 1.5.1 1.2-1.2-.2-1 .3-2 1-2.2.8-.3 1 .1.6 1.4-.5 1.3-.2 1.2 1.1-.5.9-1.3 1.5-2.6 1.2-2.8-.3-.3.1-1.7.9-3.2 1.2-2.3 1.1-2.8-.2-3.5-1.4-.8-1.3-1.1.2-2.8 1.5-1.7 1.6-2.3.6-4-1.1-1.8-1-1.9 1.5-1.4 1.6.3 2.1.2 1.3-.1-1.7-.8-3-2.4-3-3.8 0-.6.5-.5 1.2.2s1.6 1.2 2.2 1.2c.5 0 .1-.6-.9-1.4-1.8-1.3-1.8-1.5-.2-3 1.4-1.4 1.4-4.6 0-4.6-.3 0-.2.7.1 1.6.4 1 .2 1.4-.6 1.1-.7-.2-1.2-1-1-1.7.1-.7-.3-1.8-.9-2.6-.8-.9-.8-1.4-.1-1.4.6 0 1.4.5 1.7 1 .4.6 1.1.8 1.6.4 1.6-1-1-3.4-2.9-2.7-1.4.6-1.5.4-.5-.8 1-1.2 1-1.8 0-2.8-1-1.1-.7-1.2 1.3-.6 2.4.7 2.5.7.5-.9-2-1.7-2-1.7.2-1.1 1.2.3 2.4.2 2.6-.2.3-.5-.9-.9-2.7-.9-3.3 0-4 1.5-2.3 4.3.4.6.3 1.4-.3 1.8-.6.4-.8 1.1-.5 1.6.4.5.1.9-.4.9-.6 0-1.1.5-1.1 1.1 0 .5.5.7 1 .4.6-.3 1-.1 1 .4 0 .6-.6 1.1-1.2 1.1-.7 0-.2.7 1 1.6 1.2.8 2.2 2 2.2 2.6 0 .6-.8.4-1.8-.5-1-1-2.1-1.5-2.4-1.2-.3.3-.4-1.3-.1-3.7.2-2.4.5-6.6.6-9.5.1-2.8.6-5.5 1-6 .5-.4.7.1.5 1.2-.2 1.4.3 2 1.9 2.1l2.2.1-2.2-2.7c-1.4-1.7-2.6-2.4-3.3-1.9-.7.6-1-.6-.9-4.1.1-2.8-.1-5-.4-5-.4 0-.8-1-.9-2.3-.2-2.2-.9-5.8-1.2-6.7-.1-.3-.3-1-.4-1.5-.1-.6-.8-2.4-1.5-4-.7-1.7-1.3-4-1.3-5.3 0-1.2-.7-2.2-1.4-2.2-1.3 0-1.8-1.4-1.7-4.7 0-.7-.3-1.1-.8-1-.5.1-1.7-1.1-2.7-2.8-.9-1.6-2.3-3.6-3-4.3-.7-.7-.9-1.8-.6-2.4.4-.6.2-.8-.3-.5-1.3.8-4.6-2.7-3.6-3.7.5-.4.3-.6-.2-.4-.6.1-2.3-.9-3.9-2.5-1.5-1.5-3.8-3.5-5.2-4.3-1.3-.9-2.1-2-1.8-2.5.3-.5.2-.8-.3-.7-1.3.5-5.3-2.8-4.5-3.7.4-.5.1-.5-.5-.1-.8.4-2.3-.3-3.7-1.6-1.3-1.3-3-2.4-3.7-2.6-.8-.2-1.5-.8-1.7-1.3-.2-.5-.8-.9-1.3-.9s-3.7-1.7-7.1-3.8c-6.8-4.2-18.5-10-43-21.2-8.7-4-15.8-7.7-15.8-8.3 0-.6-.3-.7-.6-.4-1.1 1-4.5-1.3-3.8-2.5.4-.7.3-.8-.4-.4-1.3.8-6.1-2.4-11.5-7.6-2-2-3.7-3.4-3.7-3.1 0 .3-.9-.6-2-2s-2-3-2-3.5c0-.6-.6-1.7-1.4-2.5-2.2-2.1-2.6-7.4-.5-6.1.8.4.7.9-.2 1.5-1 .6-.8.8.7.7 1.1-.1 2.1-.8 2.1-1.5 0-.6-.4-1-.8-.7-.4.2-.9-.2-1.2-.8-.3-1-.7-1-2 0-1.4 1.2-1.6 1.1-1.6-.5-.2-5-.9-10.1-1.5-11.1-.3-.6-.3-1.3.2-1.6.5-.3.8-2.5.7-5 0-2.7.3-4.2.9-3.9.5.4.7-.1.3-1.1-.5-1.1-.3-1.5.5-1s.9.2.5-.9c-.3-1-.2-1.7.4-1.7.6 0 .8-.4.4-.9-1.2-2.1 6.6-13 8.9-12.3.4.2.5-.5.2-1.5-.4-.9-.4-1.4-.1-1.1.4.4 2.7-.9 5.2-2.8 2.4-1.9 4.8-3.2 5.3-2.9.4.3 1.3-.2 2-1 .6-.7 1.8-1.1 2.6-.8.8.3 1.4 0 1.4-.7s.6-1 1.4-.7c.8.3 1.7.3 2.1-.1.4-.4 2.1-.8 3.8-1 11-.9 15.6-.9 15.1-.1-.3.5-.9.7-1.3.5-.4-.3-1.3-.1-2 .3-.9.6-1 1.1-.2 1.5.6.4 1.1.2 1.1-.4 0-.6.4-.9.9-.6.4.3.7 1.7.6 3.1-.2 1.4.1 2.5.7 2.5.5 0 .6-.9.3-2-.5-1.4-.2-2 .9-2 .9 0 1.6-.4 1.6-1 0-.5-.8-.6-1.7-.3-1.5.6-1.6.5-.3-.9.8-.9 1.9-1.3 2.4-1.1.5.3 1.8.7 3 .8 3.4.4 3.6.5 3.6 1.3 0 1.3-3 1-3.1-.2 0-.6-.4-.1-.9 1.1-.6 1.6-1.5 2.1-2.7 1.7-1.4-.4-1.5-.4-.4.4.9.7 1 1.2.2 1.6-.6.4-1.1 1.1-1.1 1.6s1.4-.5 3-2.2c2.5-2.5 3.3-2.8 4.5-1.8.8.7 1.5 2 1.6 2.9 0 1.1.2 1.2.6.3.3-.7-.1-1.9-.8-2.8-1-1.3-.9-1.4 1.4-1 1.5.2 3.2.8 3.9 1.1.7.4.4 0-.6-.9-1-.8-2.2-1.3-2.7-1.1-.4.3-1 .1-1.4-.5-.9-1.5 1.8-1.2 4 .4 1 .7 2.6 1.1 3.6.9 2.5-.7 5.8 3 5.5 6.1-.2 1.4 0 2.4.3 2.1.4-.2 2.4 10.1 4.5 22.8 2.1 12.8 3.8 23.3 3.9 23.4.2.1 3 .3 6.4.4 5.3.2 6.3.5 7.4 2.6.7 1.2 1.7 2.3 2.2 2.3.5 0 .4-.6-.2-1.3-.6-.8-.7-1.8-.3-2.2.4-.5.1-.5-.5-.1-.7.4-1.3.3-1.3-.1 0-.5 6.1-.9 13.7-.8 10.7 0 13.7.3 14.1 1.4.3.9 0 1.1-.9.6-1.7-1.1-9.1-1.6-8.4-.6.7 1.2-2.5 5.2-3.6 4.6-.5-.4-.3-1.3.6-2.1.8-.9 1.5-2.1 1.5-2.7 0-.7-.4-.6-1 .3-.9 1.3-1 1.3-1 0 0-.9-.3-1.1-.8-.5-1.1 1.6-4.5 1.9-3.7.3.5-.7.1-.6-.9.3-1 .9-1.4 2.2-1 3.2.8 2.3 2.1 2.1 2.9-.4.4-1.1 1-1.8 1.3-1.4 1 1 .9 2.9-.3 3.8-.5.4 0 .6 1.2.4 1.1-.2 2.7-.8 3.5-1.5 1.1-.9 1.7-.9 2.6 0 .9.9 1.2.9 1.2.1 0-.6-.6-1.3-1.2-1.6-.7-.2-.9-.8-.5-1.3.5-.5 1.7.2 2.9 1.6 1.7 2.1 1.9 2.2 1.6.5-.2-1.3.3-2 1.7-2.3 1.6-.2 1.7-.1.5.7-.8.6-1.1 1.1-.7 1.1.5 0 2.2-.9 3.8-2.1 2.5-1.8 3.2-1.9 4.6-.7 1.4 1.1 1.6 1.1.8-.1-.6-1.1-.4-1.3.9-.8 1.1.4 1.5.3 1.1-.4-.4-.6-1.3-.8-2.1-.5-.7.3-1.6.1-1.9-.4-.4-.6-.1-1 .6-1 .8 0 .7-.5-.2-1.6-1.2-1.5-1.1-1.6.8-1 1.3.4 2.4.2 2.9-.5.5-.8.2-1-.8-.6-.9.3-2.5-.1-3.6-.9-1.9-1.3-2.1-1.3-1.7.6.3 1.3 0 1.8-.7 1.4-.7-.4-.8-.2-.4.5.4.6 1.2.9 1.7.6 1.4-.9 1.1.9-.6 3.1-1.6 2.1-1.7 1.9-1.9-5.3-.1-4 .2-4.9 1.2-4.1.6.6 1.2.7 1.2.2 0-.4.6 0 1.3 1 .8 1.1 2 1.6 2.8 1.3 1-.4.9-.6-.3-.6-1-.1-1.8-.6-1.8-1.2s.7-.8 1.7-.5c1.5.6 1.5.4-.2-1.4-1-1.1-1.5-2.3-1.2-2.7.4-.4 1.4.2 2.2 1.3 1.4 1.8 1.4 1.7.4-.8-.7-1.5-1.5-2.5-1.9-2.3-.4.3-.7-.7-.7-2 0-2.1.2-2.3 1.3-1.4.8.7 1.7.9 2.1.6.3-.4-.2-.9-1.1-1.3-1.6-.6-1.6-.8 0-2.5 1-1.1 1.2-1.9.6-1.9-.7 0-1.2.5-1.2 1.2 0 .6-.3.8-.7.4-1.3-1.2-.9-3 .9-5 1.6-1.8 1.6-2-.5-3.7-2.6-2.2-1.5-2.5 1.6-.4 2.2 1.4 2.3 1.3 2.3-1 0-1.3-.4-2.1-.8-1.9-.5.3-.6 1-.3 1.5.4.5.2.9-.4.9-1.5 0-2.3-1.8-1-2.5.7-.5.3-1.2-1-2.2-1.2-.8-2.1-1.9-2.1-2.5 0-.7.5-.7 1.4.1 1 .9 1.5.8 2-.4.3-.8 1.2-1.5 2-1.5s1.7-.4 2-.9c.4-.5-.3-.7-1.4-.4-1.1.3-2.3.9-2.6 1.4-.3.5-1 .9-1.6.9-.6 0-.3-.9.6-1.9 1.3-1.5 1.4-2 .4-2.4-.7-.2-1-.7-.6-1.1.3-.4 1.6-.3 2.7.3 1.7.9 2 .9 1.5-.3-.3-.8-1.6-1.3-3-1.1-1.5.1-2.3-.2-2.1-.9.2-.6 1.3-1 2.3-.8 1.1.2 1.5 0 .8-.5-.6-.4-1-1.6-.9-2.5.2-1.1-.2-1.5-1.1-1.1-.9.3-1.4 0-1.2-.7.2-.7-.4-1.5-1.2-1.7-1.2-.4-1.2-.3-.1.5.9.7 1 1.2.2 1.6-.6.4-.9 2-.6 3.7.3 1.8.2 2.8-.4 2.5-1.3-.8-1-9.8.3-11.5.9-1.2.8-1.3-.3-.7-1 .7-1.2.4-.7-1.2 1.2-3.6-1-5.8-10.1-10.5-10.5-5.4-22.6-9.7-34.8-12.5-11.9-2.7-14.2-3.1-26-3.8-5.5-.3-11.3-.7-13-.8-1.6-.1-8.1.2-14.4.6zM222 146.5c0 .1-.6.7-1.3 1.3-1 .8-1.3.6-1.4-.8-.1-1.3.3-1.7 1.3-1.3.8.3 1.4.6 1.4.8zm-1.5 6.3c.8 2.1-1.6 4.7-2.6 3-.7-1-.9-.9-.9.3 0 .9.9 2.4 2 3.4 2.4 2.2 2.6 3.5.4 3.5-1.1 0-1.4.6-.9 2.1.5 1.4.3 1.9-.3 1.5-.6-.3-1.4-.1-1.8.5-.5.8-.3.9.6.4.9-.6 1-.2.5 1.5-.5 1.5-.4 2 .4 1.6.6-.4 1.1-1.4 1.1-2.2 0-.8.5-1.4 1-1.4 1.5 0 1.2 1.6-.5 3-.8.7-1.3 1.6-1 2 .4.6-1.6 2-2.9 2-.1 0-.1-1.9.2-4.3.2-2.3.4-6.7.5-9.7.2-4.6.5-5.5 2-5.4 1.4.2 1.5-.1.6-1.2-.6-.8-1.5-1.1-2-.8-.5.3-.9.1-.9-.5 0-1.5 3.9-.9 4.5.7zm-1.6 23.8c-.6.7-.8 1.8-.5 2.3.4.5.1 1.3-.5 1.7-.8.4-.9.3-.5-.4.5-.8.2-1-.8-.6-.9.3-1.6.2-1.6-.4 0-.5.7-1.2 1.5-1.6.8-.3 1.5-1.1 1.5-1.8 0-.9-.3-.9-1 .2-.5.8-1.2 1.1-1.7.7-1-1.1 1.7-2.6 3.4-2 1 .4 1.1.9.2 1.9zm-1.4 5.2c1.6 1.2 1.6 4.9 0 4.9-.8 0-1.5-.3-1.6-.6 0-.3-.2-1.6-.5-2.9-.4-2.2.3-2.8 2.1-1.4zm-7.5 16.8c0 .8-1.9 1.3-2.4.6-.3-.5.1-.9.9-.9s1.5.2 1.5.3zm-13.5 1.4c.3.5.1 1-.4 1-.6 0-1.1-.5-1.1-1 0-.6.2-1 .4-1 .3 0 .8.4 1.1 1zM233 349.4c-1 1.3-1 1.6 0 1.6.9 0 1 .3.1 1.3-.8 1-.7 1.7.1 2.5.8.8.6 1.8-.7 3.8-1.3 2-1.9 2.3-2.5 1.3-.5-.7-.6-1.7-.3-2.2.3-.5.9-.4 1.3.3.5.8.9.7 1.3-.5.4-.9.3-1.4-.2-1-.5.3-.8-1.3-.6-3.5.2-2.2-.1-3.8-.6-3.5-.4.3-.6 1.2-.3 1.9.3.8.1 1.7-.5 2-.6.4-.7 1.4-.4 2.3.4 1.1.3 1.4-.5.9-.7-.4-1-1.8-.6-3.4.3-1.5.6-3.2.6-3.9.1-.6 1-1 2-.8 1 .2 1.6 0 1.3-.6-.4-.5-1.4-.9-2.3-.9-1.5 0-1.5-.2-.2-1 2.3-1.4 4.8 1.4 3 3.4zm-4.3 8.2c-.9 1 1.3 4.5 2.4 3.9 1.3-.9 2.3 2.1 1.3 4.2-.4 1-.6 2.4-.5 3 .1.7-.4 1-1.3.7-.8-.3-1.7 0-2.1.5-.3.6-1 .9-1.5.6-.5-.3-1.2 0-1.6.6-.4.7-.3.9.4.5.6-.3 1.4-.2 1.7.4.4.6.1.9-.6.8-.8-.2-1.4.7-1.5 1.9-.1 1.3.3 2.3.9 2.3.6 0 .7.3.4.6-.4.4-1.2.2-2-.4-1.2-1-4-.2-3.8 1.2.3 1.7 0 2.6-.6 2.5-2.8-.5-3.3.2-1.8 2.4 1.3 2.1 1.3 2.3-.4 2.3-1 0-1.8-.6-1.8-1.3 0-.7.5-.9 1-.6.6.3.7.1.3-.6-1.1-1.7-2.5-.4-2.1 1.9.3 1.3 0 1.8-.7 1.4-.7-.5-.8-.2-.3.6.6.9.4 1.1-.5.5-.8-.5-1.1-.4-.7.3.9 1.3 4.3.8 4-.6-.4-1.7 4 .2 4.6 1.9.3 1.2.2 1.2-1.2.1-1.4-1.2-1.8-1-3 1.5-.8 1.5-2.7 3.9-4.1 5.2-2.2 2.1-2.6 2.2-2.6.7 0-.9.4-1.5.9-1.2.5.3 1.2-.1 1.5-.9.5-1.4.2-1.4-2.4 0-1.8.9-3.1 1.1-3.5.5-.6-.9.7-1.4 2.7-1.1.4 0 .5-.6.2-1.3-.5-1.2-.9-1.2-2.4.2-1.4 1.2-1.6 1.9-.9 2.9.6.7 1.6 1 2.2.6.6-.3.7-.1.3.5-.7 1.2-4.6 1.2-4.6-.1 0-.4-.5-.5-1.1-.2-1.3.9-.7 1.5 2.1 2 3 .6 3 .6.1 3.5-1.3 1.4-2.2 2-1.9 1.5.2-.6-.6-2.1-1.9-3.5-1.6-1.6-2.2-1.8-1.7-.7.4 1.2.1 1.7-1 1.7-1.2 0-1.5.7-1.1 2.9.6 3.6-1.7 6-3.9 4.2-1.2-1-1.9-.8-3.4.7-1.1 1.1-2.2 2.6-2.4 3.3-.4 1.1-.8 1.1-1.8.2-1-.9-1.9-.9-4.1.2-3.3 1.8-5.1.1-2.3-2 1.1-.7 2.1-.9 2.2-.4.2.5.8.9 1.4.9.6 0 .7-.8.4-1.7-.4-1-.4-1.4 0-1.1.3.4 1.8-.4 3.2-1.7 1.4-1.3 2.9-2.2 3.2-2 .4.3 1.5-.4 2.5-1.5s2.2-2 2.8-2c.5 0 1.8-1.1 2.9-2.6 1.1-1.4 2.2-2.3 2.5-2 .8.7 4.3-2.7 3.7-3.6-.3-.5 0-.7.8-.6.7.2 1.2-.3 1.1-1-.2-.6.4-1.2 1.3-1.2s1.2-.5.8-1.3c-.4-.6-.4-.9 0-.5 1.1.9 3.6-1.4 2.8-2.6-.3-.5 0-.6.6-.2.7.4 1.2.1 1.2-.7 0-.8 1.1-2.7 2.4-4.2 1.4-1.6 2.3-3.2 2.1-3.5-.2-.4.7-1.8 2-3.2 1.3-1.4 2.1-2.9 1.7-3.3-.4-.3.1-1.1 1-1.6 1-.5 1.5-1.6 1.2-2.4-.4-.8-.1-1.5.5-1.5s.8-.6.5-1.3c-.3-.8.2-1.9 1-2.6.8-.7 1.2-1.9.9-2.7-.3-.8.1-1.4.8-1.4.7 0 .9.3.6.6zm-3.7 23.8c0 .2-.7.9-1.5 1.6-1.3 1.1-1.4 1-.9-.4.5-1.4 2.4-2.3 2.4-1.2zm-23 23.1c-1.3 1.6-2.5 1.2-2.5-.8-.1-1.7 1.8-2.8 2.9-1.7.6.6.4 1.5-.4 2.5zm-9.5 5.5c.3.5.1 1-.4 1-.6 0-1.1-.5-1.1-1 0-.6.2-1 .4-1 .3 0 .8.4 1.1 1zm-23.5 6.1c0 .5.5.7 1.2.3.6-.4.8-.3.5.3-.4.6-2.1.9-3.9.7l-3.3-.4 2.4 1.9c1.7 1.3 2 2 1.2 2.6-.7.4-2 0-3-.9-1.5-1.4-2-1.4-2.9-.3-.7.8-.9 1.6-.7 1.9.3.3-.4.5-1.6.4-1.6-.1-2.3-.8-2.4-2.3-.1-1.3.1-2.1.3-1.8.3.3 1.2-.1 2-.8 1.2-.9 1.6-.9 1.9 0 .4 1 .9.9 2-.3.9-.8 2.2-1.3 2.9-1 .8.3 1.4.1 1.4-.4 0-.6.5-1 1-1 .6 0 1 .5 1 1.1zm.9 2.8c.8.5.9 1.1.3 1.5-.5.3-1.5-.1-2.2-.9-1.4-1.6-.3-2 1.9-.6zM74 420c0 .5-.7.7-1.5.4-.8-.4-1.5-.8-1.5-1 0-.2.7-.4 1.5-.4s1.5.4 1.5 1zm22.2 2.6c3.1-.1 4.4.2 3.7.9-1.3 1.3-7.1 1.6-6.2.2.3-.6.1-.7-.5-.3-.6.4-.9 1.3-.5 2.1.3.8 0 1.5-.6 1.5s-1.1-.3-1.2-.8c0-.4-.2-1.8-.5-3.2-.2-1.4-.1-2 .3-1.4.5.6 2.9 1 5.5 1zM110 424c0 .5-.2 1-.4 1-.3 0-.8-.5-1.1-1-.3-.6-.1-1 .4-1 .6 0 1.1.4 1.1 1zm35-.1c0 .6-.4 1.2-.8 1.5-.5.3-.9-.1-.9-.9s.4-1.5.9-1.5c.4 0 .8.4.8.9zm-12 2.2c0 .5-.4.9-.8.9-.5 0-.9-.7-.9-1.5s.4-1.2.9-.9c.4.3.8.9.8 1.5zm6.7-.1c.1.9-.4 1.7-1.1 1.7-.6 0-1.2-.8-1.2-1.7 0-.9.5-1.7 1.1-1.7.6 0 1.2.8 1.2 1.7z"/><path d="M226.9 361.7c-.1.5-.1 1.2 0 1.7.1.4-.4 1.4-1 2.2-.6.8-.8 1.4-.4 1.4.5 0 0 .9-1 2s-1.3 2-.8 2c.6 0 1.4-.7 1.7-1.6.3-.8 1-1.2 1.6-.9.5.3 1.5.3 2.2-.1.7-.5.5-1.1-.8-2.1-1.8-1.4-1.8-1.4.5-1.1 1.5.2 2.6-.3 2.8-1.2.4-1.2.3-1.3-.5-.1-.8 1.1-1.1.9-1.7-.8-.6-2-2.4-2.9-2.6-1.4zm1.6 6.1c-.3.3-1.1 0-1.8-.7-.9-1-.8-1.1.6-.5 1 .3 1.5.9 1.2 1.2zM221.5 374c-1 1.1-1.5 2.3-1.2 2.7.4.3.7.1.7-.5s.9-.9 2.1-.7c1.7.3 1.9.1.9-.9-.8-1.1-.8-1.5.2-1.9.7-.3.8-.6.2-.6-.6-.1-1.9.8-2.9 1.9zM218.5 379c-.3.6.1.7.9.4 1.8-.7 2.1-1.4.7-1.4-.6 0-1.3.4-1.6 1zM211.2 389.2c-.7.9-.8 1.8-.1 2.8.8 1.2 1.2 1.2 1.6.2.4-1 .8-1 2.1 0 1 .8 1.3.9.9.1-.4-.6-.4-1.3 0-1.6.5-.2.2-.2-.4-.1-.7.2-1.6-.4-2.1-1.2-.7-1.3-1-1.3-2-.2zM202.1 398.8c1.2 1.9 3.3 2.3 4.4.9.3-.4.2-.5-.2-.2-.3.3-1.7-.2-3-1-2.3-1.5-2.3-1.5-1.2.3zM193.5 404c-1 1.1-2.1 1.7-2.5 1.5-.4-.3-1.3.2-2 1s-.9 1.5-.4 1.5.1.5-.9 1.1c-.9.6-1.5 1.5-1.1 2 .3.5 2.1-.7 4-2.8 2-2.1 4.2-3.7 5-3.5.8.2 1.4-.4 1.4-1.3 0-2.1-1.3-1.9-3.5.5zM195 407.4c.7.7 1.3.7 2 0 .6-.6.3-1-1-1s-1.6.4-1 1zM158.9 418.2c0 .2-.2 1.1-.4 2.1-.3 1.5-.1 1.6 1.1.6.7-.6 1.1-1.5.8-2-.5-.9-1.3-1.2-1.5-.7zM163 418.4c0 .2.8 1 1.8 1.7 1.5 1.3 1.6 1.2.3-.4s-2.1-2.1-2.1-1.3zM246.9 119.2c-.3 2.5-.6 16.7-1.4 49.5l-.7 33.3h7.1c5.6 0 7.1.3 7.1 1.5 0 .8.4 1.5 1 1.5.5 0 .7-.6.4-1.3-.6-1.6 18-1.7 19.6-.1.8.8.6 1.1-.4 1.1-.8 0-1.3-.3-1.1-.7.2-.3-.7-.6-2-.6s-2.1.4-1.9.8c.3.4 0 .8-.5.8-.6 0-1.1-.6-1.1-1.3 0-.9-.3-.8-.9.2-.7 1.1-.9 1.1-1.3 0-.3-.8-.5.2-.5 2.1-.1 1.9.2 2.8.6 2 .3-.8 1.5-1.7 2.5-1.8 1.7-.3 1.8-.2.7 1.2-1 1.2-1 1.6-.2 1.6.7 0 .9.4.6 1-.3.6.1.7 1 .3 1.3-.4 1.4-.8.4-1.4-.8-.4-1-1.2-.5-1.6.4-.4 1.4.1 2.2 1.1.8 1.1 1.4 1.4 1.4.7s.5-.9 1.3-.5c1 .6 1 .4 0-.7-2-2.1-1.5-3.4.5-1.6 1.8 1.6 1.9 1.6 3.2-.8.9-1.6 1.6-2.1 2.1-1.4.5.8 1.1.8 2.5 0 1.8-1.1 1.8-1.1 0-.9-1 .2-2.1-.3-2.4-1.1-.2-.8 0-1.1.5-.8.5.3 2.2-.3 3.9-1.4 1.6-1 2.4-1.9 1.9-1.9-.6 0-2 .7-3.2 1.5-1.2.8-2.4 1.1-2.7.7-.3-.5.6-1.5 1.9-2.2 1.3-.7 2.2-1.7 1.9-2.2-.5-.7 1-1.2 2.9-.9.5.1.6-.3.2-.9-.7-1.2-4.5.5-4.5 2.1 0 .6-.4.8-.9.5-.4-.3-1.7.2-2.7 1-1 .9-1.2 1.2-.4.8 1.2-.5 1.2-.4.3.6-.6.7-.9 2-.6 2.9.4.9.3 1.3-.2.9-.4-.4-1.4-.3-2.2.3-.9.9-1.3.8-1.3 0 0-.6.4-1.1.9-1.1s1.2-1.6 1.5-3.5c.5-2.4 1.1-3.3 1.9-2.8.9.5.9.3.1-.8s-1.2-7.4-.4-7.4c.1 0 .4-1.4.5-3 .2-1.7.7-4.4 1-6 .4-1.7.7-3.8.8-4.7.1-.9.5-1.4.9-1.2.4.3.8-.1.8-.8 0-.9.3-.9 1 .2 1.3 2.1 1.2 3-.2 2.8-.8-.2-1.3.6-1.2 1.9.1 1.4-.3 2-1 1.6-.6-.4-.5.1.3 1 1.1 1.4 1.1 1.7 0 1.7s-1.1.2.1 1c1.2.7 1.2 1 .1 1-.8 0-1.1.6-.7 1.6.4 1 .2 1.3-.6.8-.7-.4-.8-.3-.4.5.4.6 1.2.9 1.7.6.5-.4.9-.1.9.5 0 .7-.7 1-1.7.6-1.5-.5-1.5-.4.1.9 1.7 1.3 1.5 1.9-.5 1.7-.3-.1-.6.6-.6 1.4 0 .7.4 1.4.9 1.4s.6.6.2 1.2c-.8 1.4 1.8-.5 4.8-3.5 1.8-1.7 1.3-2.1-2.2-1.8-1 .1-.7-.5.9-1.9 1.8-1.6 2.1-2.3 1.2-3.4-.8-.9-.8-1.6-.2-2 .5-.4 1.3.3 1.6 1.5.4 1.1.9 1.8 1.2 1.6.6-.7-1.6-5-3.1-5.9-.8-.5-.7-.8.2-.8.7 0 1.1-1.1 1-2.9-.1-1.6.4-3.6 1.1-4.5.8-1 .9-1.6.3-1.6-.7 0-1-1.8-.8-4.5.2-4.5 1.5-7.5 1.7-3.9 0 1.1.3 1.4.6.6.3-.7-.2-2.4-1.1-3.7-1.7-2.6-.9-3.4 1.3-1.3 1.1 1 1.3 1 .7 0-.4-.6-.2-1.2.4-1.2.7 0 1-.6.7-1.3-.2-.6-1-1.1-1.6-.9-1.3.2-1.5-1.4-.3-2.2 1-.6 2.7.5 3.6 2.4.3.8.4.5.2-.8-.5-2.5.6-2.9 2.4-.7.7.8 1.7 1.5 2.3 1.5.5 0 .1-.8-1.1-1.8-1.3-1.2-1.8-2.3-1.3-3.1.5-.7 1.1-.9 1.3-.5.3.5.3.3.2-.4-.2-.6.2-1.2.8-1.2.6 0 .8-.3.5-.6-.4-.4-1.3-.2-2.1.5-1.1.9-1.5.9-1.8-.1-.3-.9-.6-.9-1.2 0-.4.7-.2 1.2.3 1.2.6 0 1.1.4 1.1 1 0 .5-.6 1-1.4 1-.9 0-1.3-.7-1.1-1.9.3-1.6-.2-1.9-2.8-1.7-2.8.2-3.1.6-3.2 3.7 0 1.9-.4 3.9-.8 4.6-.4.6-.2 1.5.3 1.8.7.5.5 1.2-.7 2.2-1 .8-1.1 1.1-.3.7 1.3-.7 1.3-.5.1.9-1.2 1.5-.9 2.1 1.2 1.8.4 0 .7.3.7.9 0 .5-.7 1-1.5 1s-1.5.5-1.5 1.1c0 .5.4.8.9.4.5-.3 1.3 0 1.7.6.4.7.3.9-.3.6-.6-.4-1.4 0-1.7.9-.9 2.2-2.8.6-2-1.8.3-1.1.6-3.5.6-5.4 0-1.9.3-3.2.7-2.9.4.2.8-1.3.8-3.3.2-8.9.2-8.8 6-8.7 2.9 0 5.3-.3 5.3-.8 0-.4.6-.5 1.3 0 1.8 1.1 26.1 1 26.9-.2.5-.6.8-.6.8.2 0 .7 1.1.9 3 .7 1.7-.3 3-.1 3 .5 0 .5-1.1.8-2.5.7-1.6-.2-2.2.1-1.8.8.4.6-.1.5-1-.3-1.2-.9-1.7-1-1.7-.2 0 .7-.5.9-1.2.5-1-.6-.9-.3 0 .9 1.2 1.4 1.1 1.6-.7 1.4-1.6-.1-2-.6-1.5-2.2.4-1.6.3-1.7-.5-.5-.6.8-1.1 1-1.1.4s-1.3-1-2.9-1c-1.7 0-2.8.3-2.6.7.3.3-.6.6-2 .6s-2.3-.2-2.1-.6c.3-.4-.4-.7-1.4-.7-1 0-1.6.5-1.2 1.1.3.5-.2.4-1.1-.4-.9-.7-1.7-.9-1.7-.4s-.7 1-1.5 1-1.5-.4-1.5-.9c0-1.8-1.8.3-2.2 2.6-.3 1.7-.1 2.3.8 1.9.7-.2 1-1.2.8-2.1-.4-1.2 0-1 1.4.5 2.1 2.4 4.2 3.3 2.3 1-1.1-1.4-.5-2.7 1.1-2.7.5 0 .6.6.2 1.2-.5.9-.2.8.9-.1 1.5-1.2 2-1.1 3.7.4 1.1 1 1.7 2.2 1.4 2.7-.3.5.3.4 1.5-.4 1.1-.7 2-1.9 1.8-2.7-.1-.8.4-1.6 1.2-1.9.8-.2 1.1 0 .8.5-1 1.7 1.8 4.7 3.4 3.7.8-.5 2.1-.9 2.9-.9.8 0 1.4-.5 1.3-1.1-.1-.6.9-1.2 2.3-1.2 1.8 0 2.2.4 1.5 1.1-.6.6-1.1 1.6-1.1 2.1 0 .6.7.3 1.4-.7.9-1.2 1.6-1.4 2.1-.8.3.6 1.2 1.1 1.8 1.1.8 0 .8-.3.2-.8-1.4-1-1.7-3.2-.4-3.2.5 0 .7-.6.3-1.3-.4-.7-.3-.8.2-.4 1.5 1.5 1.8 20 1.9 130.9 0 71.2-.3 109-1 109.6-.5.6-8.4 1.7-17.5 2.6-9.1.9-17.4 1.8-18.5 2-1.8.3-2 1.1-2 12 0 6.5.2 11.9.6 12.2.4.2 3.8.5 7.7.6 5.7.2 7.2.6 7.5 2 .3 1.1-.2 2-1.4 2.3-1 .4-1.9 1.1-1.9 1.6 0 .6 1.4.1 3.1-1.1 1.6-1.2 3.3-1.9 3.7-1.6.3.4.2 1-.3 1.4-.6.4-1.1 1.4-1.3 2.2-.1 1 .3.9 1.3-.5 1.8-2.3 1.4-4.1-.9-3.9-.9.1-1.6-.4-1.6-1 0-.9 16.4-1.2 68.3-1.1 37.5 0 68.7-.1 69.3-.3 1.3-.4 1.1-23-.3-24.2-.4-.5-4.2-1.1-8.3-1.4-4.1-.4-8.4-.9-9.5-1.1-1.1-.2-3.7-.4-5.8-.4-2.1-.1-3.6-.5-3.3-.9.3-.5-1.8-.8-4.7-.8-4 .1-5.2-.3-5.2-1.4 0-.8-.4-2.1-.9-2.9-.6-1-.5-1.2.2-.7.7.4 1.2.2 1.2-.3 0-.6.8-1.1 1.8-1.1 1.6.1 1.6.1-.1 1.4-1.6 1.2-1.6 1.4-.2 2 .9.3 1.3 1 1 1.6-.3.5-.1 1 .4 1 1.4 0 1.4-1.3-.1-2.8-.7-.7-.8-1.2-.2-1.2.6 0 1.6.6 2.3 1.2.7.7.3-.4-.9-2.5-1.2-2-1.7-3.7-1.2-3.7.6 0 1.3.9 1.7 1.9.8 2.6 3.2 4.6 3.2 2.6 0-.8-.4-1.2-.8-1-.4.3-1-.2-1.3-1.1-.9-2.3-.8-2.4 1.2-1.7.9.3 1.4.3 1.1-.1-.4-.4-1.6-.8-2.8-1.1-1.1-.2-2.5-.6-3-1-.5-.3-1.2-.1-1.5.4-.4.5-.1 1.3.5 1.7.8.4.7.9-.2 1.5-1.7 1.1-3.8 1.2-2.4.1 1.3-.9 1.8-5.5.5-4.7-.6.3-.7-.1-.4-1 .6-1.4.9-1.4 3 0 1.3.8 2.7 1.5 3.1 1.5.4 0 .2-.4-.6-.9-1.6-1-2.3-5.1-.9-5.1.8 0 1.2 1.6.9 3.4-.1.5.6.3 1.6-.4 2.8-2.2 2.9-2.4.9-1.6-1.3.4-1.7.2-1.3-.7.3-.9-.4-1.3-2.4-1.3-2.3 0-2.6.2-1.7 1.3.6.7.7 1.7.3 2.1-.4.4-1 .1-1.2-.6-.3-.6-.8-1-1.1-.8-.4.2-.7-.9-.7-2.5-.1-1.5.1-2.6.4-2.4.2.3 1 0 1.8-.6.7-.6 1.3-.8 1.3-.4s-.8 1.4-1.7 2.2c-1.7 1.3-1.7 1.3.2.5 1.1-.5 2.7-.7 3.5-.5 1.3.4 1.3.3 0-.6-.8-.5-1.1-1.3-.7-1.7.4-.4 1.5 0 2.5.9 1.5 1.4 1.9 1.5 1.9.2 0-.8-.4-1.2-.9-.9-.4.3-.8 0-.8-.6 0-.7-1.3-.9-3.8-.5l-3.8.5.1-19.2c0-17.7.2-19.3 1.8-19 1 .2 1.7-.3 1.7-1.3 0-.8-.5-1.5-1.1-1.5-.5 0-.7.4-.4 1 .3.5 0 .7-.7.5-1-.4-1.4-4-1.4-15 0-7.9.3-14.2.7-13.9.5.2.7 2 .5 3.9-.1 1.9.1 3.2.6 2.9 1.3-.8.9 1-.4 2.6-1.1 1.2-1 1.2.5.1.9-.7 1.7-1 1.7-.6s-.8 1.4-1.7 2.2c-1 .8-1.3 1.2-.7.9.6-.3 1.1.1 1.1.9s-.4 1.5-.9 1.5c-.4 0-.8.5-.8 1.1 0 .5.5.7 1.1.3.8-.5.8-.1 0 1.4-.7 1.4-.8 2.3-.1 2.7 1.5.9 1.2 2.7-.2 1.9-1-.5-1-.4-.1.6 1.8 2 2.9.3 1.4-2.1-1.1-1.9-1-2 1.1-1.4 1.7.5 1.9.4.9-.4-1.7-1.1-2.4-4.1-.9-4.1.6 0 .7-.7.4-1.6-.8-2.1 1.1-5.4 3.2-5.5 1.1 0 1.2-.2.4-.6-.7-.3-1.9.1-2.7.7-1.7 1.4-2-.1-.4-1.7.8-.8.5-1.3-.9-1.8-1.3-.4-1.9-1.2-1.5-2.1.4-1.2.7-1.2 1.8.3.8 1 1.7 1.5 2.1 1 .4-.4.2-.7-.5-.7s-.9-.5-.6-1c.6-.9-.8-1.5-2.9-1.1-.5.1-.6-.5-.2-1.4.3-.9.6-1.9.6-2.2 0-.2.7.3 1.6 1.1.8.9 2.3 1.6 3.2 1.5 1.3 0 1.2-.2-.4-.9-2.9-1.2-3.8-2.8-2.5-4.4.9-1 .7-1.5-.5-2-2-.8-4.1.8-2.5 1.8.6.4 1.1 1.2 1.1 1.7 0 .6-.4.7-1 .4-.6-.3-.7.1-.4.9.3.9.2 1.6-.3 1.6s-.9-2.5-1-5.5c0-3 .1-5.5.2-5.5.2 0 1.5.4 2.9 1 2 .7 2.4.6 2-.5-.3-.8-1.3-1.1-2.2-.8-1.4.5-1.5.3-.4-.8 1.7-1.8 1.5-2.7-.6-3.3-1.4-.5-1.8-1.8-1.9-6.1 0-3 .3-5.5.8-5.5.4 0 .6.7.3 1.5-.4.8-.1 1.5.6 1.5.6 0 .8-.5.5-1-.3-.6.1-1 1-1s1.4.4 1 .9c-.3.6.4 1.5 1.5 2.1 1.3.7 2 .7 2 0 0-.5-.7-1-1.5-1s-1.4-.3-1.4-.8c.4-2.1-.3-3.1-1.7-2.5-1.4.5-1.4.3-.3-1.5.7-1.1 1.7-1.8 2.2-1.5.5.3.3-.4-.4-1.5-.7-1.2-1.7-1.8-2.2-1.5-.5.3-.4.9.3 1.3.8.5.7.9-.5 1.4-.9.3-1.3 1-1 1.6.3.5.1 1-.4 1-.6 0-1.1-.7-1.1-1.5s.6-1.5 1.3-1.5c.8 0 .8-.3.1-.8-1.3-.9-1.7-11.2-.4-11.2.5 0 .7.7.4 1.5-.4.8-.1 1.5.6 1.5.6 0 .8-.5.5-1-.3-.6.1-1 1-1s1.4.4 1 .9c-.3.6.4 1.5 1.5 2.1 1.3.7 2 .7 2 0 0-.5-.7-1-1.5-1s-1.4-.3-1.4-.8c.4-2.2-.3-3.1-1.8-2.5-1.6.6-1.6.5-.4-1.1 1.2-1.4 1.2-1.9.2-2.6-1.1-.6-1.1-.9 0-1.4.8-.3.5-.4-.7-.1-1.4.4-2.1 0-2.1-1s.7-1.3 2.2-.9c1.3.3 2.7-.1 3.5-1.1 1.1-1.3 1-1.9-.5-3.5-1.5-1.7-1.6-2.2-.4-3.7.9-1.1 1-1.4.2-.9-1.6.9-1.7-.8-.2-3.5.6-1.1 1.5-1.7 2.2-1.2.7.4.5-.2-.3-1.3-2.2-2.9-2.4-3-1.7-1.2.3 1 .2 2-.3 2.3-.6.4-1 .1-1-.4 0-.6-.5-1.1-1.2-1.1-.6 0-.8.3-.5.7.4.3.1 1.3-.6 2.2-1.1 1.4-1 1.4.6.2 2.1-1.7 2.2-.3.2 2.7-1.5 2-1.5 2.1.2 1.5 1.6-.6 1.6-.5.4 1-.7.9-1.6 1.7-2 1.7-1 0-.8-27.3.2-28.8.5-.6.4-1.2 0-1.2-1.1 0-1.1-9 0-10.8.5-.6.4-1.2 0-1.2-.5 0-.9-1.8-.9-4 0-2.5.3-3.9 1-3.7.6.3 1 1 .8 1.6-.1.6.1 1.1.5 1.1.5 0 .9 1.1.9 2.5.1 1.4-.1 2.3-.5 2-.4-.2-.8.2-.8 1s.5 1.5 1 1.5c.6 0 .2.9-.7 1.9-1.9 2-.9 3.5 1.4 2.1.7-.4 2-.6 2.9-.3 1.3.4 1.3.3.2-.5-.8-.6-2.1-.8-2.9-.4-1 .3-1.3.1-.8-.7.4-.6 1.6-.9 2.7-.6 1.1.4 1.9.2 1.9-.4 0-.6-.3-1-.7-1-1.9.3-3.3-.2-3.3-1.2 0-.6.7-.8 1.7-.5 1.5.6 1.5.4-.1-1.3-1.6-1.8-1.7-2.3-.5-3.8.9-1.1 1-1.4.2-.9-.9.4-1.3.1-1.3-.9s.6-1.5 1.3-1.2c.7.3 2.1-.1 3.2-.9 1-.8 1.4-1.4.9-1.4-.6 0-1.4.3-1.7.7-.4.3-1.9.8-3.3.9-2.1.2-2.3 0-1.4-1.1.7-.8 1.6-1.2 2.1-.9 1.6 1 3.1-.7 1.9-2.1-.7-.8-.8-2-.4-2.7.5-1 .4-1-.6-.1-1.1 1-1.1 1.5 0 2.8.8 1 .9 1.5.2 1.5-.6 0-1.6-.9-2.2-1.9-.8-1.6-.5-2.3 1.6-4 1.4-1.1 2.3-2.4 2-3-.3-.5 0-1.2.6-1.4.8-.3.6-.6-.5-.6-1.1-.1-1.7.5-1.5 1.5.2 1-.2 1.9-.8 2.1-.8.3-1-.8-.8-3.4.7-5.5.7-6.5-.1-9.7-.5-2.6-.4-2.8 1-1.6 1.7 1.4 1.7 1.4 2-1.8.1-1.2-.2-2.2-.7-2.2-.5 0-.6 1-.3 2.2.5 1.7.4 2-.4 1.2-2.3-2.1-2-5.2.5-6.9 1.4-.9 2.9-1.3 3.4-1 .5.3 1.2 0 1.6-.6.4-.7.3-.9-.4-.5-.6.3-1.3.2-1.7-.4-.3-.5.3-1 1.4-1 1.2 0 2.1-.4 2.1-1 0-.5-.7-.7-1.5-.3-2 .7-1.6-1.7.5-3.5 1.3-1.1 1.1-1.1-.7-.2-1.8.8-2.1.8-1.7-.3.3-1 2.6-1.3 8.4-1.2 4.4.1 8-.2 8-.6 0-.5.8-.5 1.7-.2 2.2.8 6.4.8 8.6 0 .9-.3 1.9-.3 2.1.2.3.4 3 .7 6.1.6 4-.2 5.5.1 5.5 1.1 0 .7-.4 1.6-1 1.9-.6.4-.7-.1-.4-1.2.6-1.6.5-1.6-.8.1-1.5 1.9-1.5 1.9-2.6 0-.8-1.4-1.2-1.5-1.2-.4 0 1.2-.2 1.2-.9.2-.7-1.1-.9-1-1.5.3-.3.9-1 1.4-1.4 1.1-.5-.3-.9 0-.9.7s-.4 2.1-.8 3.2.2.5 1.4-1.3c2.2-3.5 3.7-4.3 2.7-1.5-.6 1.7-.5 1.7.7.1.8-1 1.7-1.5 2-1.1.4.3.2 1.2-.4 2-.8.8-.8 1.3-.1 1.3.6 0 1.2-.5 1.4-1.2.2-.6 1.4-1.2 2.6-1.3 1.1-.1 1.9.1 1.7.4-.2.4 0 2.7.5 5.1.5 2.5 1.1 6.9 1.5 9.9.4 3 .8 6.1 1 7 .1.9.6 4.5 1.1 8.1.4 3.6.8 6.7.9 7 .4 1.5 1.9 14.6 1.7 15.2-.1.5.8.8 2 .9 1.3 0 6.1.2 10.8.4 4.7.1 8.6.3 8.8.4.1 0-.5 1.3-1.5 2.7-1.7 2.7-1.7 2.7.4 1.5 1.3-.6 2.4-.7 2.8-.2.3.5-.3 1.2-1.2 1.4-1.7.4-1.7.5 0 .6 1 0 2-.6 2.4-1.4.5-1.4.8-1.4 2.2-.2 2 1.8 5.1 1.8 4.4 0-.3-.7-.9-1.3-1.5-1.3-.5 0-.6.4-.3 1 .7 1.1-.8 1.4-1.9.3-.3-.4.4-1.3 1.6-1.9l2.3-1.3-2.2.2c-1.3.1-2.3.4-2.3.7 0 .3-.8.6-1.8.7-1.1.1-1.8-.6-1.9-1.9-.2-1.7 0-1.8 1.4-.6.9.7 1.4.8 1.1.3-.4-.7 1.7-1 5.8-.9 5.2 0 6.7-.3 7.4-1.7.6-1.1.6-1.9 0-2.2-.6-.3-.5-.4.2-.2.7.1 1.2.8 1 1.4-.1.6.2 1.1.8 1.1 1.3 0 1.2-1-.5-4-.8-1.4-1.4-1.9-1.5-1.1 0 .8-.2 1.2-.5.9-.4-.3.3-2.1 1.4-4.1 1.1-1.9 1.8-3.8 1.5-4.1-.2-.3.1-.2.7.3.8.6.8 1.5 0 3-.8 1.4-.8 2.1-.1 2.1.5 0 1-.7 1-1.5s.5-1.5 1.1-1.5c.8 0 .8-.5-.1-1.5-1-1.2-1-1.8 0-3s1-1.5 0-1.5c-.7 0-.2-.9 1.1-2.1l2.4-2.1-2.4 1.6c-1.6 1-3 1.2-4.1.6-1.5-.8-1.7-.5-1.5 1.9.1 1.6.5 3.4.9 4 .4.6.2.9-.6.6-1.1-.4-1.4-4.7-1.3-20.1 0-10.8-.4-19.8-.8-20.1-.4-.3-.4-1 .1-1.6 1-1.4 1-2.7-.1-4.4-.4-.6-.3-1.5.3-1.8.8-.5.7-1.2-.2-2.3-1-1.2-1-1.4 0-.8.6.4 1.2.3 1.2-.3 0-.5-.5-1.3-1.1-1.6-.6-.5-.4-1.2.8-2.1 1.7-1.3 1.7-1.5-.1-2.9-1.4-1.1-1.6-1.5-.5-1.5s1.2-.2.1-.9c-.8-.4-1.3-1.1-1.3-1.5.1-.3.1-2.6.1-5.1v-4.4l-132-.1c-105.1 0-132 .2-132.1 1.2zM513 133c0 .5-.5 1-1.1 1-.5 0-.7-.5-.4-1 .3-.6.8-1 1.1-1 .2 0 .4.4.4 1zm-90.4 11.5c2.1-.1 3 .3 2.7 1.1-.2.7 0 1.5.6 1.9 1.8 1.1-1.6 6.6-3.6 5.8-1-.4-1.4-.2-.9.5.3.6.2 1.3-.4 1.7-.6.4-.7 1.1-.4 1.7.4.7.2.8-.4.4-.7-.4-1.2-.2-1.2.3 0 .6-.4 1.1-.8 1.1s-.8-1.1-.8-2.4c0-1.4.4-2.2.8-2 .9.6.6-2.6-.5-4.3-.4-.6-.2-1.5.4-1.9.8-.4.7-.9-.2-1.5-1-.6-1-.9-.2-.9.7 0 1-.7.7-1.8-.4-1-.2-1.3.3-.7.4.6 2.2 1 3.9 1zm-125.5 2.4c.3.1.6.8.6 1.6 0 1.2-.3 1.2-1.6.2-.9-.7-1.2-.8-.8-.1.4.7.1 1.7-.6 2.2-1 .9-1.3.5-1.2-1.7 0-2 .4-2.8 1.5-2.6.8.2 1.8.4 2.1.4zm22.1 1.5c.7-.4.8-.2.4.5-.9 1.3-2.6.5-2.5-1.2 0-.9.2-.8.6.1.2.6 1 .9 1.5.6zm6.2.1c.3.8.1 1.5-.3 1.5-.5 0-1.1-.7-1.5-1.5-.3-.8-.1-1.5.3-1.5.5 0 1.1.7 1.5 1.5zm-29 5.4c-.8.8-4.3.8-3.8 0 .2-.4 1.3-.7 2.4-.6 1 .1 1.7.3 1.4.6zm-3.8 5.9c-1.7 1.6-1.8 1.6-.5-.5.7-1.2 1.5-2 1.8-1.7.3.2-.3 1.2-1.3 2.2zm128.4 0c0 .4-.5 1.3-1.2 2s-.8 1.2-.2 1.2c.6 0 1.1.7 1.1 1.5 0 1.7-.6 1.8-2.4.7-1-.7-1-1.4 0-3.5 1.1-2.5 2.7-3.6 2.7-1.9zm.5 9.1c-.4.9-.8 2.3-1 3.1-.1.8-.9 1.4-1.6 1.2-1.1-.2-1 .1.1 1 1.4 1.1 1.8 3.2 1.1 4.8-.1.3-.4 1.5-.7 2.8-.3 1.7-.1 2.1.8 1.6s.9-.2-.1.9c-2.1 2.7-3 2-2.7-2.1.2-2.6.7-3.6 1.7-3.4 1.1.2 1.1 0-.1-1-2-1.7-2-5.4 0-5 1.3.2 1.3.1 0-1-1.4-1.1-1.7-2.6-1.2-5 .1-.3 1.1-.4 2.3-.1 1.4.4 1.8 1.1 1.4 2.2zm-129.1 2.6c-.6 1.5-.8 1.6-1.6.2-.5-1-1.5-1.4-2.5-1-1.1.4-1.4.2-1.1-.8.3-.8 1-1.4 1.6-1.4.5 0 1.4-.4 1.8-.8 1.2-1.1 2.5 1.8 1.8 3.8zm-.7 4.9c-.5 1.5-2.4 1.8-2.4.3 0-.8.6-1.4 1.4-1.4.7 0 1.2.5 1 1.1zm-.5 4.1c0 .5-.5 1.1-1 1.3-.5.1-.9-.4-.9-1.3s.4-1.4.9-1.3c.5.2 1 .8 1 1.3zm.3 3.4c.7 1.2-1.2 2.4-2.5 1.6-1.1-.7-.4-2.5 1-2.5.5 0 1.1.4 1.5.9zm225.3 1.9c.2.7-.3 1.2-1 1.2-.8 0-1.5-.7-1.5-1.5 0-1.8 1.9-1.5 2.5.3zM290.5 191c-1 1.1-2.1 1.7-2.4 1.4-.3-.3.3-1.2 1.3-2 2.8-2 3.2-1.7 1.1.6zm222.8.5c-.3.9-.8 1.4-1 1.1-.3-.3-.2-.9.2-1.5.9-1.6 1.5-1.3.8.4zm-229.8 13.4c-.3.6-1.1 1.1-1.7 1.1-.6 0-.6-.6.2-1.5 1.4-1.7 2.6-1.3 1.5.4zM278 206c1 1.9 1 2-.9.8-1.1-.6-1.7-1.6-1.5-2 .8-1.2 1.2-1 2.4 1.2zm143 32.1c0 .5-.4.8-.9.4-.5-.3-1.2-.1-1.5.4-.4.5-.2 1.2.3 1.5.5.4 1.2.2 1.6-.4.8-1.2 2.5-1.3 2.5-.1 0 1.3-2.7 2.1-4.5 1.5-1.8-.7-2-3-.2-3.7 2-.9 2.7-.8 2.7.4zm-1.8 9.4c0 .5-.5 1.1-1.1 1.3-.6.2-1.1-.4-1.1-1.3s.5-1.5 1.1-1.3c.6.2 1.1.8 1.1 1.3zm0 32c0 .5-.5 1.1-1.1 1.3-.6.2-1.1-.4-1.1-1.3s.5-1.5 1.1-1.3c.6.2 1.1.8 1.1 1.3zm1.8 8.5c0 .5-.2 1-.4 1-.3 0-.8-.5-1.1-1-.3-.6-.1-1 .4-1 .6 0 1.1.4 1.1 1z"/><path d="M419.8 146.2c-1 .6-1 .8.1.8s1 .4-.4 1.4c-1.8 1.3-1.8 1.4.3 2.5 1.4.7 2.3.8 2.7.1.4-.6 1.2-.7 1.8-.3.7.4.5-.2-.3-1.2-1.4-1.7-1.3-1.8.5-1.2 1.8.7 1.9.6.3-.6-1-.8-1.6-1.6-1.3-1.9.8-.8-2.3-.5-3.7.4zm2.8 2.3c-.1.9-.5 1.5-.9 1.5h-1.9c-.7 0-.5-.5.5-1.1.9-.6 1.4-1.5 1.1-2.1-.4-.6-.3-.8.4-.5.5.4.9 1.4.8 2.2zM418.9 155.7c-1.3 1.6-1.2 1.7.4.4 1.6-1.3 2.1-2.1 1.3-2.1-.2 0-1 .8-1.7 1.7zM418.1 167.7c-.1 1.7 1.6 2.5 2.5 1.2.4-.7.3-.9-.4-.5-.5.3-1.3 0-1.5-.6-.4-.9-.6-1-.6-.1zM514.5 134.7c-1.1 2.7-1.3 5.3-.3 4.7.5-.4.7-1.2.4-2-.3-.7.5-2 1.7-2.9 1.6-1.1 1.8-1.5.5-1.5-.9 0-1.9.8-2.3 1.7zM519 135c0 .5.5 1 1.1 1 .5 0 .7-.5.4-1-.3-.6-.8-1-1.1-1-.2 0-.4.4-.4 1zM516.5 136.1c-.4.6-.5 1.2-.2 1.5.2.3.7-.2 1-1.1.7-1.7.1-2-.8-.4zM128.8 139.6c-2.1 1.1-2.8 1.1-2.8.2 0-.6-.7-.3-1.6.8-1.2 1.5-1.4 1.5-1.1.2.6-1.6-.8-1.9-3-.5-.7.5-1.3.5-1.3.1 0-.3-.7-.1-1.5.6-.8.6-1.8.9-2.3.6-1.4-.8-3.5 2.1-2.6 3.5.4.7.2 1-.7.7-.8-.3-1.3-1-1.2-1.6.3-1.3-6 2.3-7.8 4.4-1 1.2-.9 1.3.7.7 1.6-.6 1.7-.5.6.9-.7.9-2 1.5-2.9 1.4-1.4-.2-6.8 4.7-6.2 5.6.1.2-.4 1.4-1.1 2.8-.8 1.4-1.4 3.4-1.4 4.6-.1 1.1-.7 2.8-1.4 3.7-1 1.2-1 1.7-.1 2.3.9.5.9 1-.2 1.8-2.3 1.8-2.1 3.4.4 2.9 2-.4 2-.3.4.7-.9.6-1.4 1.6-1.1 2.2.5.8.1.9-1 .5-1.2-.5-1.5-.3-.9.5.4.7.8 1.9.9 2.8.1.8.5 2.4.9 3.4.6 1.4.5 1.7-.3 1.2s-1-.2-.6.8c.8 2 2.8 2 4.5 0 .7-.8 2.1-1.3 3.1-1.1 2.7.7 2.2-.2-.8-1.3-1.4-.6-2.2-1.4-1.9-2 .6-.9-.8-1.4-2.7-1.1-.5 0-.8-.6-.8-1.4 0-2 .6-1.9 4 .5 1.8 1.3 3.1 1.7 3.5 1 .4-.6.3-1-.2-.9-2.2.4-2.5-.2-.7-1.7s1.8-1.5-.3-.5c-2.9 1.5-3.3 1.4-2.7-.4.4-.8 1.4-1.5 2.3-1.6 1.2 0 1.3-.2.2-.6-.8-.3-1.9.1-2.6 1-.6.9-1.6 1.2-2.4.8-.8-.6-.2-1.3 2.1-2.5 2.2-1.1 2.6-1.6 1.3-1.5-3.4.2-4.6-.1-4.1-1 .3-.4 1.7-.7 3.1-.6 2.9.4 3.4-1 .7-1.7-1-.3-1.9-1.3-1.9-2.2 0-.9.5-1.5 1.1-1.3.6.3 1 1 .8 1.6-.1.6.2 1.1.8 1.1 1.3 0 1.3-1.7 0-2.5-.5-.3-1-1.2-1-1.8.1-.7.9-.1 2 1.2 1.1 1.2 1.7 2.8 1.3 3.4-.3.5-.1.7.5.4.5-.4.8-1.5.5-2.6-.3-1.2.3-2.4 1.7-3.4 1.7-1.2 1.8-1.5.5-2-.8-.4-2.1-.4-2.9-.1-.9.4-1.4 0-1.2-1 .3-1.9 1.6-3.4 1.6-1.7 0 .7.4 1 .9.6.5-.3 1.2-.1 1.6.5.3.5 1.6 1 2.8.9 1.4 0 1.6-.2.7-.6-4-1.3-6-2.7-4.8-3.4.7-.4 1.7 0 2.5.9 1.1 1.5 1.2 1.5.8.1-.5-1.2 0-1.6 1.7-1.5 1.3.1 3 .6 3.8 1.1 1.2.7 1.3.6.3-.7-.7-.8-1-1.8-.6-2.1.3-.4.1-.7-.5-.7-.7 0-1.2.6-1.2 1.2 0 .9-.3.8-1-.2-1.3-2.1 1.6-3.6 3.7-1.8.9.7 1.4.8 1 .2-.4-.7.1-1.4 1.3-1.7 1-.3 2.1 0 2.4.7.2.6.5.3.5-.7.1-2 0-2-3.2-.8-2 .8-2.7.6-3.1-.5-.3-.8-.1-1.2.4-.9.5.3 1.9.1 3.1-.5 1.6-.9 2.4-.8 3.9.5 1.2 1.1 2 1.3 2.5.6.6-1.1.5-1.2-1.4-1.5-.6 0-1.6-.7-2.3-1.4-1-1-.8-1.2.9-.9 1.3.2 2.6.6 2.9 1 1.1 1 2.4.8 2.4-.4 0-.5-.5-.7-1.1-.3-.7.4-1 .1-.7-.7.3-.8 1-1.5 1.6-1.5.7-.1 1.7-.2 2.3-.3.5 0 .8-.5.4-1-.3-.5-.1-1.2.4-1.5 2-1.3 1.6 3-.4 4.2-1.9 1.3-1.9 1.3 0 .6 1.1-.4 3-.7 4.2-.7 1.2-.1 1.9-.5 1.7-.9-.3-.4 0-.8.7-.8.8 0 .7-.5-.2-1.7-1.2-1.5-1.2-1.6.4-1 1 .4 2.1.7 2.3.7.3 0 .2.4-.1 1-.3.5-.1 1 .5 1 .7 0 .9-.8.4-2.3-.7-2.2-.6-2.2 1.5-.3 1.1 1.1 2.1 1.6 2.1 1.3 0-.6-4.8-5.7-5.3-5.7-.1.1-1.4.8-2.9 1.6zm3.7.3c.3.5.1 1.2-.5 1.6-.5.3-1-.1-1-.9 0-1.8.6-2.1 1.5-.7zm-11.2 1.8c-.4 1.1-.3 1.4.5.9.8-.5 1-.2.6.8-.3.9-.9 1.5-1.2 1.4-.4-.1-1.6.3-2.7.9-1.6.9-2.5.8-3.9-.2-1-.8-1.5-1.9-1.1-2.4.9-1.5 2.7-.3 1.9 1.2-.3.7.2.3 1.1-.8.9-1.1 2-2 2.5-2 .4 0 1.2-.3 1.6-.8 1.2-1.1 1.4-.8.7 1zm8-.5c-.4.7-.8 1.7-.8 2.3 0 1.5-1.9 1.8-2.4.4-.2-.7.1-.9.9-.4.9.6 1.1.4.5-.5-.4-.7-.2-1.6.6-2.1 1.9-1.2 2.2-1.1 1.2.3zm-16.4 5.3c.7-.3.8 0 .5.9-.6 1.7-1.6 2-4.8 1.6-1.3-.1-1.7.3-1.3 1.4.6 1.5-2.5 4.1-3.5 3-.3-.3-.8.2-1.1 1-.4 1-.1 1.3.9.9.7-.3 1.4 0 1.4.5 0 .6-.9.9-2 .7-2.5-.5-6.9 3-6.5 5.3.2.9.4 2.1.4 2.6.1.5.8.3 1.6-.4.9-.7 1.8-1.1 2-.8.3.3-.2 1.1-1.1 1.9-1.5 1.2-1.8 1.2-2.7-.3-1-1.5-1.2-1.5-2.2-.1-1 1.4-1.2 1.3-1-.6.1-1.2.9-3.1 1.8-4.1 1.1-1.3 1.3-2 .5-2-1.7 0 3.5-5.1 5.4-5.4 2.4-.3 4.7-2.6 4.2-4-.7-1.7 3.7-3.7 5.3-2.4.7.5 1.7.7 2.2.3zm-20.2 22.2c-.4.3-.1 1.3.6 2.2 1.1 1.4 1 1.4-.5.2-1.6-1.2-1.6-3.1-.1-3.1.4 0 .3.3 0 .7zm1 15.3c1.2 1.6 0 4-2 4-.7 0-.7-.4.1-1.2 1.4-1.4 1.6-3.2.3-2.4-.5.3-1.1-.1-1.5-.9-.7-1.9 1.5-1.5 3.1.5z"/><path d="M118.3 143.5c0 .8.4 1.2.9.9.5-.3.6-1 .3-1.5-.9-1.3-1.2-1.1-1.2.6zM107.4 147.6c-1.8 1.4-1.8 1.5.3.5 1.6-.8 2.3-.8 2.6.2.4.9.6.9.6 0 .2-2-1.5-2.3-3.5-.7zM98 155.5c-.9 1-.9 1.5-.1 1.5.6 0 1.1-.5 1.1-1.1 0-.5.5-.7 1.2-.3.7.4.8.3.4-.4-.9-1.5-1.1-1.5-2.6.3zM514.7 140.6c-2.1 1.2-2.6 1.9-1.8 2.8.6.7.7 1.6.3 2.1-.4.4.3.2 1.6-.4 2.4-1.3 3-3.1 1-3.1-.7-.1-.2-.7 1.2-1.5 3.4-1.9 1.2-1.8-2.3.1zm.8 2.4c.3.5.2 1-.4 1-.5 0-1.3-.5-1.6-1-.3-.6-.2-1 .4-1 .5 0 1.3.4 1.6 1zM221.6 141.9c.9.9 3.4.9 3.4.1 0-.5-.9-.8-2-.7-1 .1-1.7.3-1.4.6z"/><path d="M518.8 141.7c.7.3 1.6.2 1.9-.1.4-.3-.2-.6-1.3-.5-1.1 0-1.4.3-.6.6zM157 143v1.7c0 .5 1.2.9 2.7.9 1.6.1 2.2 0 1.5-.3-.6-.3-.9-1-.6-1.6.5-.8.2-.8-.7 0-1.8 1.8-3.4 1.6-1.9-.2.9-1 .9-1.5.1-1.5-.6 0-1.1.4-1.1 1zM145.5 144c-.3.5-.2 1 .4 1 .5 0 1.3-.5 1.6-1 .3-.6.2-1-.4-1-.5 0-1.3.4-1.6 1zM152 143.8c0 .5.7.9 1.5.9s1.2-.4.9-.9c-.3-.4-.9-.8-1.5-.8-.5 0-.9.4-.9.8zM454.3 144.7c.4.6-1.9.9-6.3.8-4.2-.2-7 .1-7 .7s-.8.4-1.7-.3c-1.1-1-1.4-1-.9-.2.9 1.6.1 1.6-2.4.3-1.8-.9-1.8-.8-.9 2 1.3 3.5 2.4 4.1 1.3.7-.7-2.2-.7-2.2 1.5-.3 1.6 1.4 2 1.6 1.6.5-.3-.9 0-1.6.7-1.6s2.1-.4 3.1-.8c1.3-.5 1.6-.3 1.2.7-.3.8.1 2.1 1 2.8 1.1.9 1.5.9 1.5.1 0-.7.4-1 .8-.7 1.2.7 3.8-1.2 2.9-2.1-.5-.4-1.1-.3-1.5.2-1 1.4-4.2 1.8-4.2.5 0-.5.3-1 .8-1.1.4 0 1.7-.2 2.9-.5 1.2-.2 2.5.1 2.8.6.4.6 1.1.7 1.7.4.6-.4.8.1.3 1.6-.4 1.4-.3 2 .3 1.6 1.4-.8 2.1-5.5.9-6.3-.5-.3-.7-.2-.4.4zM135.3 146.5c0 .8.4 1.2.9.9.4-.3.8-.9.8-1.5 0-.5-.4-.9-.8-.9-.5 0-.9.7-.9 1.5zM227.5 146c-.3.5-.1 1 .4 1 .6 0 1.1-.5 1.1-1 0-.6-.2-1-.4-1-.3 0-.8.4-1.1 1zM430.9 146.2c-.1.7 0 1.7.1 2.3.1.5.3 1.5.3 2.2 0 .7.4 1 .9.7.5-.3.6-1 .3-1.5-.4-.5-.1-.9.4-.9.6 0 1.1-.4 1.1-1 0-.5-.8-.6-1.7-.3-1.6.6-1.6.5-.4-1 .9-1.1 1-1.7.2-1.7-.6 0-1.2.6-1.2 1.2zM516 146c-1.3.8-1.3 1 .2 1 .9 0 2-.5 2.3-1 .8-1.3-.5-1.3-2.5 0zM512.5 148c-.8 1.3.8 1.8 2.9 1 1.9-.6 1.9-.7-.2-1.2-1.2-.4-2.4-.2-2.7.2z"/><path d="M441.7 148.7c-.4.3-.7 1.1-.7 1.7 0 .6.5.5 1.2-.2.6-.6.9-1.4.7-1.7-.3-.3-.9-.2-1.2.2zM312.6 149.8c-.2.4.4.9 1.5.9 1.1.1 1.7-.2 1.4-.8-.7-1.1-2.2-1.2-2.9-.1zM518.8 149.7c.7.3 1.6.2 1.9-.1.4-.3-.2-.6-1.3-.5-1.1 0-1.4.3-.6.6zM331 150.9c0 .6.4 1.3 1 1.6.6.3.7-.1.4-.9-.7-1.8-1.4-2.1-1.4-.7zM433.6 151.5c-.3.8-.1 1.5.4 1.5.6 0 1-.7 1-1.5s-.2-1.5-.4-1.5-.6.7-1 1.5zM463.7 151.3c-.4 1-.2 1.6.6 1.4.7-.1 1.1.5.9 1.3-.2.8 0 1.1.4.7 1.1-1.1 1.4-3.8.4-3.2-.5.3-1 0-1.2-.7-.3-.8-.7-.6-1.1.5zM515.5 151c.3.6 0 1.3-.8 1.6-1.5.5-1.8 6.6-.4 8 .9 1 .9 2.7-.1 2-.4-.2-.8.4-.8 1.4 0 1 .4 1.6.8 1.4 1-.6 1.1 1 .1 2-.4.4-.8 3.1-.9 6.1-.1 4.6.2 5.5 1.9 6.1 1.6.5 1.7.8.6 1.5-.8.5-.9.9-.4.9.6 0 1.7-.5 2.5-1 .9-.6 1-1 .3-1-1.5 0-4.3-2.8-4.3-4.3 0-.7.7-.3 1.5.7.8 1.1 1.5 1.4 1.5.7s.4-1 .9-.6c.5.3 1.2.1 1.5-.4.4-.5.2-1.2-.4-1.6-.6-.4-.8-1.1-.4-1.6.3-.5 1-.6 1.6-.3.7.4.8.2.4-.4-.5-.9-1.2-.8-2.6 0-1.2.8-1.5 1.5-.9 1.9.8.5.8.8.1 1.3-.6.4-1.6-.2-2.1-1.3-1.5-2.6-1.4-3.1.3-2.5 1.5.6 4.3-3.3 3.2-4.4-.3-.3-.6.1-.6.9s-.7.1-1.5-1.5c-1.4-2.6-1.4-3.1.2-4.8 1.3-1.4 1.8-1.6 2.5-.6.4.7.8.9.8.5 0-1.8-3.4-5.8-4.6-5.3-1.8.7-1.8-.5.1-3 1.7-2.3 1.9-3.4.4-3.4-.5 0-.7.5-.4 1zm1.8 7.5c.7 1.6-.8 2.9-2.3 2-1-.6-.2-3.5 1-3.5.4 0 1 .7 1.3 1.5zm-.8 12.3c-.8.9-2.5-2-1.8-3.1.3-.5 1-.2 1.5.7.6 1 .7 2 .3 2.4zM124.5 152c-.3.6.1.7.9.4 1.8-.7 2.1-1.4.7-1.4-.6 0-1.3.4-1.6 1zM320.6 151.8c-.3.5.1.9.9.9s1.5-.4 1.5-.9c0-.4-.4-.8-.9-.8-.6 0-1.2.4-1.5.8zM335.3 153c.1 2.1 1 1.8 1.3-.5.1-.8-.2-1.5-.6-1.5-.5 0-.8.9-.7 2zM442.1 152.4c-.8 1-.9 1.6-.1 2.1.6.4.9.1.8-.7-.2-.7.3-1.2 1-1.1.6.2 1.2-.2 1.2-.7 0-1.4-1.6-1.2-2.9.4zM457.9 151.2c-.6 2.1-.5 3.7.2 3.2.5-.3.7-.9.4-1.4-.3-.4.1-1.1.7-1.3 1-.4 1-.6.1-.6-.7-.1-1.3 0-1.4.1zM311 153.1c0 .5.5.7 1 .4.6-.3 1-.8 1-1.1 0-.2-.4-.4-1-.4-.5 0-1 .5-1 1.1zM301.4 153.8c.4.7.1 1.2-.6 1.2s-1.9.9-2.5 1.9c-1 1.6-.9 2.2.5 3.3 1.5 1.1 1.6 1.1.4-.3-1-1.3-1-1.8.1-2.8.8-.6 1.6-.8 1.9-.5.3.2.8-.2 1.1-1 .4-.9.1-1.8-.5-2.2-.7-.4-.8-.3-.4.4zM329 154.1c0 .5.5.7 1 .4.6-.3 1-.8 1-1.1 0-.2-.4-.4-1-.4-.5 0-1 .5-1 1.1zM429.5 154c-.3.6.1.7.9.4 1.8-.7 2.1-1.4.7-1.4-.6 0-1.3.4-1.6 1z"/><path d="M516.5 154c-.3.5-.2 1 .4 1 .5 0 1.3-.5 1.6-1 .3-.6.2-1-.4-1-.5 0-1.3.4-1.6 1zM424.2 155.9c-1.1.6-.9.9.5 1.3 1.2.3 2 0 2-.8 0-1.6-.6-1.7-2.5-.5zM431 155.4c0 .2.7.7 1.6 1 .8.3 1.2.2.9-.4-.6-1-2.5-1.4-2.5-.6zM519 156.1c0 .5.5.7 1 .4.6-.3 1-.8 1-1.1 0-.2-.4-.4-1-.4-.5 0-1 .5-1 1.1zM223.5 158.1c-.4.6-.4 1.3-.1 1.6.3.4.6.1.6-.6s.5-.9 1.2-.5.8.3.4-.4c-.9-1.5-1.3-1.5-2.1-.1zM295.3 165.6c0 1.7.2 2.2.8 1.3.4-.7.5-1.7.2-2.3-.4-.5.1-.7 1.1-.3 1 .4 1.5.3 1.1-.3-1.2-2-3.2-1-3.2 1.6zM425 164c0 .5.5 1 1.1 1 .5 0 .7-.5.4-1-.3-.6-.8-1-1.1-1-.2 0-.4.4-.4 1zM517.2 164.2c.2.6 1 1.3 1.6 1.4.7.1.8 0 .2-.3-.5-.2-.8-.9-.4-1.4.3-.5 0-.9-.6-.9-.7 0-1 .5-.8 1.2zM423 164.9c0 .6.4 1.3 1 1.6.6.3.7-.1.4-.9-.7-1.8-1.4-2.1-1.4-.7zM299.5 167.1c-.4.6-.5 1.2-.2 1.5.2.3.7-.2 1-1.1.7-1.7.1-2-.8-.4zM423.6 169.5c-.9 2.6-.7 3.2.5 1.2.6-1 .9-2.1.6-2.3-.2-.3-.7.2-1.1 1.1zM101 170.1c0 .5.5.7 1 .4.6-.3 1-.8 1-1.1 0-.2-.4-.4-1-.4-.5 0-1 .5-1 1.1zM222.6 170.7c-.4.9-.4 1.4 0 1 .4-.4 1.4-.1 2.3.6 1.4 1.1 1.5 1 .1-.8-.8-1.1-1.5-2.1-1.6-2.3-.1-.2-.5.5-.8 1.5zM295.5 171c-.3.5-.3 1 .2 1 .4 0 .2.4-.5.9-1.1.7-1.1.9 0 1.4 1 .3 1.4-.3 1.4-1.9 0-2.6-.2-2.9-1.1-1.4zM98 173.5c0 .2.6.8 1.3 1.4 1 .8 1.4.7 1.4-.2 0-.8-.6-1.4-1.4-1.4-.7 0-1.3.1-1.3.2zM223 175.9c0 .6.4 1.3 1 1.6.6.3.7-.1.4-.9-.7-1.8-1.4-2.1-1.4-.7zM294.4 176.8c0 1 .6 1.9 1.3 1.9.8 0 .9-.6.2-1.9-.5-1-1.1-1.8-1.2-1.8-.2 0-.3.8-.3 1.8zM519 178c-.9.6-1 1-.3 1 .6 0 1.5-.5 1.8-1 .8-1.2.4-1.2-1.5 0zM425.2 180c0 1.4.2 1.9.5 1.2.2-.6.2-1.8 0-2.5-.3-.6-.5-.1-.5 1.3zM223.5 180c-1.6.7-1.7.9-.3.9.9.1 2-.4 2.3-.9.7-1.1.7-1.1-2 0zM295 180.4c0 .2.8 1 1.8 1.7 1.5 1.3 1.6 1.2.3-.4s-2.1-2.1-2.1-1.3zM224 186.4c-.8 1.1-.9 2-.1 3.3.9 1.6 1 1.5.8-.7-.1-1.6.3-2.4 1.1-2.2.8.1 1.1-.2.7-.8-.8-1.3-1-1.3-2.5.4zM519 188c0 .5.5 1 1.1 1 .5 0 .7-.5.4-1-.3-.6-.8-1-1.1-1-.2 0-.4.4-.4 1zM94 189.4c0 .2.7.7 1.6 1 .8.3 1.2.2.9-.4-.6-1-2.5-1.4-2.5-.6zM293.6 192.2c.3.5 1 .6 1.5.3 1.3-.9 1.1-1.2-.6-1.2-.8 0-1.2.4-.9.9zM423.2 192.2c.2.6 1 1.3 1.6 1.4.7.1.8 0 .2-.3-.5-.2-.8-.9-.4-1.4.3-.5 0-.9-.6-.9-.7 0-1 .5-.8 1.2zM519 194c-.9.6-1 1-.3 1 .6 0 1.5-.5 1.8-1 .8-1.2.4-1.2-1.5 0zM97 194.8c0 .6-1.1.9-2.6.6l-2.5-.5 2 2.2c1.2 1.3 2.4 1.9 2.8 1.6.3-.4.1-.7-.5-.7-.7 0-1.2-.5-1.2-1.1 0-.5.4-.8.9-.4 1.1.6 2.6-1.3 1.7-2.2-.3-.4-.6-.1-.6.5zM427.4 196c0 1.3.4 1.6 1 1 .7-.7.7-1.3 0-2-.6-.6-1-.3-1 1zM514.7 195.1c.7.7 1.5 1 1.8.7.3-.3-.2-.9-1.2-1.2-1.4-.6-1.5-.5-.6.5zM517.1 196.9c-1.1.7-.9 1.2 1 2.2 2.1 1.1 2.2 1 1.2-.3-.7-.8-1-1.8-.6-2.1.9-1 .1-.8-1.6.2zM189 197.6c0 1.3 1.1 2.6 3.5 4.4 1.4 1 1.7 1 .8 0-.8-.8-.9-1.9-.3-3 .6-1.2.5-1.7-.5-1.7-.7 0-1.1.7-.8 1.6.3 1.1 0 1-1.1-.3-.9-1.1-1.6-1.6-1.6-1zM180.9 199.7c-1.3 1.6-1.2 1.7.4.4 1.6-1.3 2.1-2.1 1.3-2.1-.2 0-1 .8-1.7 1.7zM98.6 200.2c.3.5 1 .6 1.5.3 1.3-.9 1.1-1.2-.6-1.2-.8 0-1.2.4-.9.9zM217 200c0 .5.5 1 1 1 .6 0 1-.5 1-1 0-.6-.4-1-1-1-.5 0-1 .4-1 1zM291.7 200.7c-1 .9-.9 2.3.1 2.3.5 0 .9-.7.9-1.5 0-1.7-.1-1.8-1-.8zM517.4 200.7c.4.8.2 1.3-.6 1.4-.7.1-2 .2-2.8.3-.8 0-1.4.7-1.2 1.3.1.7-.2 1.3-.7 1.3-.5 0-1.2-.6-1.4-1.3-.3-.6-.4 0-.3 1.6.2 1.5.6 3 1.1 3.5.4.4.6.2.3-.3-.7-1.3 1.9-3.8 2.7-2.6.3.5.1 1.2-.5 1.6-.5.3-1 1.1-1 1.8 0 .6.7.1 1.6-1.1 1.8-2.6 3.6-2.9 2.8-.5-.5 1.5-.4 1.5.4.3 1.3-1.7.5-3.3-1.3-2.6-.8.3-1.9-.1-2.5-.9-.9-1.1-.7-1.4 1.2-1.3 1.3.1 3 .6 3.8 1.2 1.3 1 1.3.9 0-.8-.8-1.1-1.3-2.1-1.2-2.3.2-.3 0-.8-.4-1.1-.4-.4-.4-.1 0 .5zM185.3 201.7c.4.3.1 1.3-.6 2.2-1.1 1.4-1 1.4.5.2 1.6-1.2 1.6-3.1.1-3.1-.4 0-.3.3 0 .7zM214 201.8c0 .4 1 .9 2.2.9 1.8.2 2 0 .8-.7-1.8-1.2-3-1.3-3-.2zM219.9 201.2c-.5 1.8-.6 3.8-.1 3.4.7-.8 1.2-3.6.6-3.6-.2 0-.4.1-.5.2zM189.4 204.5c0 1.3.4 2.1.8 1.9.5-.3.5-1 .2-1.6-.5-.7-.1-.9.9-.5 2.3.9 2.2 0-.1-1.2-1.5-.8-1.8-.6-1.8 1.4zM211 203.5c0 .8.4 1.5.8 1.5.5 0 .9-.7.9-1.5s-.4-1.5-.9-1.5c-.4 0-.8.7-.8 1.5zM422.1 203.6c1.1 1.4 1 1.5-.7 1.2-1-.1-2.3-.8-2.7-1.3-.5-.6-.7-.4-.4.5.2.8.9 1.4 1.5 1.3.5-.1 1 .9 1 2.2 0 1.3-.5 2.3-1.1 2.2-1.6-.3-1.6 12.4 0 13 .7.3 1 .9.7 1.4-.3.5-.9.7-1.3.5-.4-.3-.8.1-.8.8 0 1.7 2.4 1 3.1-1 .3-.8 1.6-1.9 2.8-2.4 1.7-.6 1.8-.9.6-.9-.9-.1-2 .4-2.4 1-.4.8-1.2.3-2-1.2-1.9-3.5-1.8-3.8 1.9-3.4 1.7.2 2.4.1 1.5-.1-1-.3-1.8-1-1.8-1.6 0-.5.7-.8 1.5-.4.8.3 1.5.1 1.5-.4 0-1.6-2.8-1.1-3.8.6-.8 1.5-1 1.5-1.5.1-.4-1 .1-1.8 1.4-2.2 1-.4 1.9-1.1 1.9-1.6s.6-.9 1.4-.9c.8 0 1.7-.4 2-.9.4-.5-.2-.7-1.2-.4-1 .2-2.4-.2-3.1-1.1-1-1.2-.8-1.8 1.3-3.1 1.4-1 2.6-2.2 2.6-2.9 0-.6-.5-.4-1.1.4-.8 1.1-1.2 1.2-1.6.2-.2-.6-.9-1.2-1.5-1.2s-.5.7.3 1.6zm-.1 8c-1.5 1.8-2.7 1.8-2.7.1 0-.7.9-1.4 1.9-1.4 1.6-.2 1.7.1.8 1.3zM262 204.2c0 .4.7.8 1.5.8s1.5-.4 1.5-.8c0-.5-.7-.9-1.5-.9s-1.5.4-1.5.9zM266.7 205.4c.3 1.2.5 3.1.6 4.2.1 1.4.6 2 1.5 1.7.7-.3 1-.9.5-1.2-.5-.3-.8-2-.8-3.7.1-1.9-.3-3.1-1.1-3.1-.7 0-1 .8-.7 2.1zM487.3 204.5c0 .8.4 1.5.9 1.5.4 0 .8-.4.8-.9 0-.6-.4-1.2-.8-1.5-.5-.3-.9.1-.9.9zM490 206.7c-3.1 3.2-3.2 3.4-.7 1.8 1.5-1 3.2-2.6 3.8-3.6 1.3-2.6 1-2.3-3.1 1.8zM506.5 204.9c.2.9.4 2.5.4 3.5.1 2.8 1.1 1.4 1.5-2.1.3-2 0-3-.9-3-.7 0-1.1.7-1 1.6zM207.3 205.5c0 .8.4 1.2.9.9.5-.3.6-1 .3-1.5-.9-1.3-1.2-1.1-1.2.6zM291 205.1c0 .5-.6.7-1.2.3-.7-.4-.9-.3-.5.1 1.3 1.5 3.6 1.4 3-.1-.6-1.7-1.3-1.8-1.3-.3zM197.5 206c.3.5.8 1 1.1 1 .2 0 .4-.5.4-1 0-.6-.5-1-1.1-1-.5 0-.7.4-.4 1zM201.5 206c.3.5.8 1 1.1 1 .2 0 .4-.5.4-1 0-.6-.5-1-1.1-1-.5 0-.7.4-.4 1zM257.7 207.1c.4 1.3.8 1.8 1.1 1 .2-.7-.1-1.8-.6-2.3-.8-.8-.9-.4-.5 1.3zM261 207.1c0 .5.5.7 1 .4.6-.3 1-.8 1-1.1 0-.2-.4-.4-1-.4-.5 0-1 .5-1 1.1zM263.7 207.4c-.4 1-.3 1.5.3 1.1.6-.3 1-.1 1 .6s.3 1 .6.6c.3-.3.2-1.3-.4-2.2-.8-1.6-.9-1.6-1.5-.1zM284.3 207.6c-.3.8 0 2.1.6 2.7.9.9 1.1.8.5-.7-.4-1.1-.2-2.1.7-2.7 1-.6 1.1-.9.1-.9-.7 0-1.5.7-1.9 1.6z"/><path d="M425 206.9c0 .7-.5.9-1.2.5-.7-.5-.8-.3-.3.5.5.9 1 1 1.8.2.6-.6.8-1.4.4-1.8-.4-.3-.7-.1-.7.6zM287.5 208.1c-.4.6-.4 1.3-.1 1.6.3.4.6.1.6-.6s.5-.9 1.2-.5.8.3.4-.4c-.9-1.5-1.3-1.5-2.1-.1zM261 210c0 .5.5 1 1.1 1 .5 0 .7-.5.4-1-.3-.6-.8-1-1.1-1-.2 0-.4.4-.4 1zM281.5 209.9c-.3.6.5 1.5 1.7 2.1 2.1 1 2.1 1 .6-.3-1-.8-1.5-1.7-1.1-2 .3-.4.4-.7 0-.7-.3 0-.8.4-1.2.9zM490 209.4c0 .2 1.1.6 2.5.8 1.3.3 2.2.1 1.9-.3-.5-.9-4.4-1.3-4.4-.5zM499 210c0 .5.5 1 1 1 .6 0 1-.5 1-1 0-.6-.4-1-1-1-.5 0-1 .4-1 1zM509.3 209.7c.4.3.1 1.3-.6 2.2-1.1 1.4-1 1.4.5.2 1.6-1.2 1.6-3.1.1-3.1-.4 0-.3.3 0 .7zM511.9 212.7c-1.3 1.6-1.2 1.7.4.4.9-.7 1.7-1.5 1.7-1.7 0-.8-.8-.3-2.1 1.3zM515.6 212.2c.3.5 1 .6 1.5.3 1.3-.9 1.1-1.2-.6-1.2-.8 0-1.2.4-.9.9zM421 220.1c0 .5.5.7 1 .4.6-.3 1-.8 1-1.1 0-.2-.4-.4-1-.4-.5 0-1 .5-1 1.1zM424.8 229.7c-1 .2-1.8.9-1.8 1.4 0 .6.8.5 2-.1 1.1-.6 2-1.3 2-1.5 0-.3-.1-.4-.2-.4-.2.1-1.1.3-2 .6zM423.7 234.7c-1.1 1.1-.8 2 .7 2 .8 0 1.2-.6.9-1.4-.6-1.5-.7-1.5-1.6-.6zM425.5 239.1c-.4.6-.5 1.2-.2 1.5.2.3.7-.2 1-1.1.7-1.7.1-2-.8-.4zM425.5 243c-.4.6-1 .8-1.5.5-.9-.6-2.3 2.5-1.5 3.3.3.3.5 0 .5-.8 0-1 .4-1 1.7.1 1.2 1 1.5 1.1.9.1-.4-.7-.2-1.9.4-2.7.7-.8 1-1.5.7-1.5-.3 0-.9.5-1.2 1zM423 249c0 .5.5 1 1.1 1 .5 0 .7-.5.4-1-.3-.6-.8-1-1.1-1-.2 0-.4.4-.4 1zM425.6 250.7c-.6 1.4-.5 1.5.5.6.7-.7 1-1.5.7-1.8-.3-.3-.9.2-1.2 1.2zM419.3 254.8c-.8.6-1.5 4.2-.8 4.2.1 0 1.2-.8 2.4-1.9 1.6-1.4 1.8-2 .8-2.4-.8-.3-1.8-.2-2.4.1zM422.1 257.5c0 .5.3 1.6.8 2.3.7 1.1.9 1 1.4-.3.4-.9.3-1.4-.2-1-.5.3-1.2-.1-1.4-.7-.3-.7-.6-.9-.6-.3zM425.6 261.3c.3 1 .9 1.5 1.2 1.2.3-.3 0-1.1-.7-1.8-1-.9-1.1-.8-.5.6zM423 265.1c0 .5.5.7 1 .4.6-.3 1-.8 1-1.1 0-.2-.4-.4-1-.4-.5 0-1 .5-1 1.1zM425.6 266.7c-.6 1.4-.5 1.5.5.6.7-.7 1-1.5.7-1.8-.3-.3-.9.2-1.2 1.2zM418.9 271.1c-.8.5-.9.9-.3.9.6 0 1 1.1.9 2.5-.4 3.1.6 3.2 2.3.4.8-1.2.9-1.8.3-1.4-.6.3-1.1.2-1.1-.4 0-.5.5-1.1 1.2-1.3.8-.3.7-.6-.3-1-.9-.3-2.2-.2-3 .3zM423 276.1c-.7 1.1-1 2.3-.7 2.5.2.2.9-.7 1.5-2.1 1.4-3 .7-3.3-.8-.4zM425.6 277.3c.3 1 .9 1.5 1.2 1.2.3-.3 0-1.1-.7-1.8-1-.9-1.1-.8-.5.6zM423 281c0 .5.5 1 1.1 1 .5 0 .7-.5.4-1-.3-.6-.8-1-1.1-1-.2 0-.4.4-.4 1zM71.3 282.5c0 .8.4 1.2.9.9.5-.3.6-1 .3-1.5-.9-1.3-1.2-1.1-1.2.6zM425.6 282.7c-.6 1.4-.5 1.5.5.6.7-.7 1-1.5.7-1.8-.3-.3-.9.2-1.2 1.2zM418 284c0 .6.7 1 1.5 1s1.5-.2 1.5-.4-.7-.6-1.5-1c-.8-.3-1.5-.1-1.5.4zM73.6 285.9c-.3.4.6.7 1.9.7 1.4 0 2.2-.2 1.9-.5-.8-.8-3.4-1-3.8-.2zM425.6 288.7c-.6 1.4-.5 1.5.5.6.7-.7 1-1.5.7-1.8-.3-.3-.9.2-1.2 1.2zM423 289.9c0 .6.4 1.3 1 1.6.6.3.7-.1.4-.9-.7-1.8-1.4-2.1-1.4-.7zM85 291.5c0 .5.5 1.7 1 2.5s1 1 1 .5c0-.6-.5-1.7-1-2.5s-1-1.1-1-.5zM428 294c-.9.6-1 1-.3 1 .6 0 1.5-.5 1.8-1 .8-1.2.4-1.2-1.5 0zM91.4 295.8c.4.3 1.4.7 2.2.8.9.1 1.3 0 1-.4-.4-.3-1.4-.7-2.2-.8-.9-.1-1.3 0-1 .4zM103.7 300.1c.7.7 1.5 1 1.8.7.3-.3-.2-.9-1.2-1.2-1.4-.6-1.5-.5-.6.5zM227.6 300.7c-.6 1.4-.5 1.5.5.6.7-.7 1-1.5.7-1.8-.3-.3-.9.2-1.2 1.2zM102.7 302.1c.7.7 1.5 1 1.8.7.3-.3-.2-.9-1.2-1.2-1.4-.6-1.5-.5-.6.5zM229.3 302.4c-.3.6-.3.8.2.4.4-.4 1.3-.3 2 .2.8.7 1.2.5 1.2-.3 0-1.6-2.5-1.8-3.4-.3zM109.7 303.1c.7.7 1.5 1 1.8.7.3-.3-.2-.9-1.2-1.2-1.4-.6-1.5-.5-.6.5zM107 303.9c0 .6.4 1.3 1 1.6.6.3.7-.1.4-.9-.7-1.8-1.4-2.1-1.4-.7zM115 305c-.9.6-1 1-.3 1 .6 0 1.5-.5 1.8-1 .8-1.2.4-1.2-1.5 0zM229.5 305.1c-.4.6-.5 1.2-.2 1.5.2.3.7-.2 1-1.1.7-1.7.1-2-.8-.4zM117.5 306.1c-.6.8-.4 1 .5.4 1-.6 1.2-.4.6 1.1s-.5 1.7.5.6c.9-.9 1-1.5.2-2.3-.8-.8-1.3-.7-1.8.2zM233.2 305.5c.4.4-.2 2.1-1.3 3.7-1.2 1.6-2 3.1-1.7 3.3.2.2 1.3-1.2 2.5-3 1.7-2.5 1.9-3.6 1-4.1-.6-.4-.9-.4-.5.1zM423 306c0 .5.5 1 1 1 .6 0 1-.5 1-1 0-.6-.4-1-1-1-.5 0-1 .4-1 1zM125 308.9c0 .5.7 1.2 1.6 1.5 1.4.5 1.5.4.4-.9-1.4-1.7-2-1.9-2-.6zM422.5 310.1c-.4.6-.4 1.3-.1 1.6.3.4.6.1.6-.6s.5-.9 1-.6c.6.3 1 .1 1-.4 0-1.4-1.7-1.4-2.5 0zM125 311.5c0 .5.5 1.7 1 2.5s1 1 1 .5c0-.6-.5-1.7-1-2.5s-1-1.1-1-.5zM235 312.1c0 .5.5.7 1 .4.6-.3 1-.8 1-1.1 0-.2-.4-.4-1-.4-.5 0-1 .5-1 1.1zM231.5 314c-.3.6.1.7.9.4 1.8-.7 2.1-1.4.7-1.4-.6 0-1.3.4-1.6 1zM237 313.9c0 .6.4 1.3 1 1.6.6.3.7-.1.4-.9-.7-1.8-1.4-2.1-1.4-.7zM132.4 316.2l-1.9 2.3 2.3-1.9c2.1-1.8 2.7-2.6 1.9-2.6-.2 0-1.2 1-2.3 2.2zM232.5 316c-.3.5-.2 1 .4 1 .5 0 1.3-.5 1.6-1 .3-.6.2-1-.4-1-.5 0-1.3.4-1.6 1zM422.8 315.7c.6.2 1.2.9 1.2 1.4 0 .6-.4.7-1 .4-.5-.3-1-.2-1 .4 0 .5.9.9 1.9.8 1.6-.1 1.8-.5 1-1.9-.5-1-1.5-1.8-2.2-1.7-.9 0-.9.2.1.6zM235.7 316.7c-1 .9-.9 2.3.1 2.3.5 0 .9-.7.9-1.5 0-1.7-.1-1.8-1-.8zM231.4 320.1c0 1 .4 1.9.8 1.9s.8-.5.8-1.1c0-.5.5-.7 1-.4.6.3 1 .4 1 .1 0-.3-.8-1-1.8-1.5-1.4-.7-1.8-.6-1.8 1zM143 319.9c0 .6.4 1.3 1 1.6.6.3.7-.1.4-.9-.7-1.8-1.4-2.1-1.4-.7zM418.6 320.2c.3.4.9.8 1.5.8.5 0 .9-.4.9-.8 0-.5-.7-.9-1.5-.9s-1.2.4-.9.9zM422.5 321.1c-.4.6-.5 1.2-.2 1.5.2.3.7-.2 1-1.1.7-1.7.1-2-.8-.4zM235 322c-1.3.8-1.2 1 .3 1 .9 0 1.7-.5 1.7-1 0-1.2-.1-1.2-2 0zM143.6 324.7c-.6 1.4-.5 1.5.5.6.7-.7 1-1.5.7-1.8-.3-.3-.9.2-1.2 1.2zM238 323.4c0 .2.8 1 1.8 1.7 1.5 1.3 1.6 1.2.3-.4s-2.1-2.1-2.1-1.3zM424 324c-2.3.7-2.3.8-.3.9 1.2.1 2.5-.4 2.8-.9.3-.6.5-1 .3-.9-.2.1-1.4.5-2.8.9zM235 324.4c0 .2.8 1 1.8 1.7 1.5 1.3 1.6 1.2.3-.4s-2.1-2.1-2.1-1.3zM418.4 327.7c.1.7.8 1.9 1.6 2.6 1 .9 1.1.9.6-.1-.4-.6-.2-1.2.4-1.2.6 0 .8-.5.4-1.2-.5-.8-.2-.9 1.2-.4 1 .4 1.5.3 1-.1-1.3-1.3-5.4-1-5.2.4zM422.4 330.1c-.3.6-.2 1.5.3 2s.9.1.9-1.1c0-2.3-.2-2.4-1.2-.9zM425.1 331.6c0 1.1.3 1.4.6.6.3-.7.2-1.6-.1-1.9-.3-.4-.6.2-.5 1.3zM418.3 332.7c.1 1.6.4 1.9 1.3 1.2s1.4-.4 1.9 1c.3 1 1.3 2.2 2.1 2.5 1.1.4.9-.2-.6-2.4-1.2-1.7-2.5-2.8-3-2.5-.5.3-1-.1-1.3-.7-.3-.7-.4-.3-.4.9zM236.5 336c.3.5 1.1 1 1.6 1 .6 0 .7-.5.4-1-.3-.6-1.1-1-1.6-1-.6 0-.7.4-.4 1z"/><path d="M419.5 336c-.3.5-.1 1 .4 1 .6 0 1.1-.5 1.1-1 0-.6-.2-1-.4-1-.3 0-.8.4-1.1 1zM418.3 339.7c0 .6.5 1.1 1 1 .5-.1 1.2.4 1.4 1.1.3.7-.1 1.1-.8 1-.8-.2-1.3.7-1.3 2.2-.1 1.4.5 2.6 1.2 2.6.6.1 1.3.3 1.5.4.1.1 1.2.4 2.5.5 1.2.1 2 0 1.7-.3-.6-.6-2.9-1.2-5.2-1.4-1.5-.2-1.7-1.4-.4-2.3.5-.3 1.2-.1 1.6.5.3.5 1.1 1 1.8 1 .6 0 .3-.6-.8-1.3-1.4-1.1-1.5-1.6-.5-2.2 1-.6.9-.9-.1-1.6-.7-.4-1-1.1-.6-1.5.3-.4 1.3-.1 2.1.5 1 .8 1.6.9 2.1.1.4-.6.3-1-.2-.9-.4.1-1 0-1.3-.1-1.7-.9-5.7-.4-5.7.7zM238.7 342.1c.7.7 1.5 1 1.8.7.3-.3-.2-.9-1.2-1.2-1.4-.6-1.5-.5-.6.5z"/><path d="M425.6 342.6c-.3.9-.2 2.2.2 3.1.6 1 .9.5.9-1.6 0-3.5-.2-3.8-1.1-1.5zM64.8 348.3c-.3 1.9-.2 2.5.4 1.9.6-.6.8-1.8.6-2.8-.3-1.4-.5-1.2-1 .9zM237.5 348.1c-.3.4.2.6 1 .5 2.1-.3 2.8-1.3 1-1.3-.9 0-1.8.4-2 .8zM67 349.9c-1.3 2.5-1.3 3.1.2 3.1.6 0 .8-.3.5-.6-.3-.4-.2-1.5.4-2.5.5-1.1.7-1.9.5-1.9-.3 0-1 .9-1.6 1.9zM69.6 350.7c-.6 1.4-.5 1.5.5.6.7-.7 1-1.5.7-1.8-.3-.3-.9.2-1.2 1.2zM418.9 349.2c-.1.2-.2 1.9-.3 3.8-.2 2.4.3 3.9 1.6 4.8 1 .7 1.6 1.8 1.3 2.3-.4.5-.3.9.2.9.4 0 1.9-1.7 3.2-3.8 1.3-2 1.7-3.1.8-2.4-1.3 1.1-1.7 1-2.7-.5-1-1.6-1.1-1.6-.6-.1.3 1 .2 1.8-.3 1.8-1.8 0-2-1.5-.6-3.6 1.3-2 1.2-2.3-.1-2.8-1.7-.7-2.3-.7-2.5-.4zm2.1 1.7c0 .6-.4 1.2-.8 1.5-.5.3-.9-.1-.9-.9s.4-1.5.9-1.5c.4 0 .8.4.8.9zm2 5.6c.5-.3 1-.2 1 .4 0 2-1.8 2-3.6-.2-1.5-1.7-1.5-1.9-.2-.8.9.7 2.2 1 2.8.6zM239.4 352c0 1.3.4 1.6 1 1 .7-.7.7-1.3 0-2-.6-.6-1-.3-1 1z"/><path d="M424 351.5c0 .8.4 1.5 1 1.5.5 0 .7-.7.4-1.5-.4-.8-.8-1.5-1-1.5-.2 0-.4.7-.4 1.5zM65.3 355.5c0 .7.8 1 1.9.7 1-.2 1.8-.6 1.8-.7 0-.1-.8-.5-1.8-.7-1.1-.3-1.9 0-1.9.7zM70.7 356.1c.7.7 1.5 1 1.8.7.3-.3-.2-.9-1.2-1.2-1.4-.6-1.5-.5-.6.5zM237.3 356.7c0 .9.4 1 1.4.2.7-.6 1.3-1.2 1.3-1.4 0-.1-.6-.2-1.3-.2-.8 0-1.4.6-1.4 1.4zM418.3 359.5c0 .8.4 1.5.9 1.5.4 0 .8-.4.8-.9 0-.6-.4-1.2-.8-1.5-.5-.3-.9.1-.9.9zM234.6 359.8c-.2.4.5 1.4 1.7 2.2 1.9 1.2 2.1 1.1 1-.2-.7-.8-1-1.8-.6-2.1.3-.4.1-.7-.5-.7s-1.3.4-1.6.8zM71.4 367.1c.1.7 1 1.3 1.9 1.5.9.1 1.5-.2 1.1-.7-.3-.5-.9-.7-1.4-.4-.4.3-1.1 0-1.3-.5-.3-.6-.4-.5-.3.1zM68 368.5c.5.6.8 2.1.5 3.3-.2 1.4.1 1.9 1 1.6.7-.3 1.6-.1 2 .5.3.6 1.2 1.1 1.8 1.1.8 0 .8-.3-.1-.9-.8-.4-1.4-1.2-1.5-1.7-.1-.5-.8-.7-1.6-.6-1.3.3-1.3.1-.2-1.2 1-1.2 1-1.6.2-1.6-.7 0-1-.4-.7-.8.3-.5-.1-.9-.9-.9-1 0-1.2.4-.5 1.2zM234 368.1c0 .5.5.7 1 .4.6-.3 1-.8 1-1.1 0-.2-.4-.4-1-.4-.5 0-1 .5-1 1.1zM75 370.4c0 .2.8 1 1.8 1.7 1.5 1.3 1.6 1.2.3-.4s-2.1-2.1-2.1-1.3zM231.2 373.9c-1.1.7-1.1.9 0 1.4.9.3 1.5-.1 1.5-.9s-.1-1.4-.1-1.4c-.1 0-.7.4-1.4.9zM234.4 373.8c.4.3 1.4.7 2.2.8.9.1 1.3 0 1-.4-.4-.3-1.4-.7-2.2-.8-.9-.1-1.3 0-1 .4zM425.5 374c.3.5.8 1 1.1 1 .2 0 .4-.5.4-1 0-.6-.5-1-1.1-1-.5 0-.7.4-.4 1zM228.7 376.1c.7.7 1.5 1 1.8.7.3-.3-.2-.9-1.2-1.2-1.4-.6-1.5-.5-.6.5zM73.5 378c-.3.5-.1 1 .4 1 .6 0 1.1-.5 1.1-1 0-.6-.2-1-.4-1-.3 0-.8.4-1.1 1zM229 384c0 .5.5 1 1.1 1 .5 0 .7-.5.4-1-.3-.6-.8-1-1.1-1-.2 0-.4.4-.4 1zM73.4 384.8c.3.6-.2 1.3-1.1 1.5-1.6.4-1.6.5-.1.6 2.1.1 3.2-1.5 1.7-2.5-.7-.4-.9-.3-.5.4zM76.7 386.1c.7.7 1.5 1 1.8.7.3-.3-.2-.9-1.2-1.2-1.4-.6-1.5-.5-.6.5zM225.4 386.5c-.3.8-.4 2-.2 2.7.3.7.7.1 1-1.5.6-2.9.1-3.6-.8-1.2zM216.2 396.2c-.7.7-1.2 1.7-1.2 2.2 0 .6.5.3 1.1-.7.6-.9 1.4-1.5 2-1.2.5.4.9.1.9-.4 0-1.4-1.3-1.4-2.8.1zM211 401.9c0 .6.4 1.3 1 1.6.6.3.7-.1.4-.9-.7-1.8-1.4-2.1-1.4-.7zM459.1 402.9c-.8.5-1.5 2.2-1.7 3.8-.2 2.3-.1 2.5.7 1 .6-.9.7-2.2.3-2.9-.5-.8-.2-.9 1-.5.9.4 1.5.3 1.1-.2-.3-.5.1-1.2.7-1.4.7-.3.9-.6.3-.6-.5 0-1.6.3-2.4.8zM463.6 403.3c.3 1 .9 1.5 1.2 1.2.3-.3 0-1.1-.7-1.8-1-.9-1.1-.8-.5.6zM462.6 406.3c.3 1 .9 1.5 1.2 1.2.3-.3 0-1.1-.7-1.8-1-.9-1.1-.8-.5.6zM459.6 407.5c-.3.8-.1 1.5.4 1.5.6 0 1-.7 1-1.5s-.2-1.5-.4-1.5-.6.7-1 1.5zM198.4 410.5c-.3.8-.4 2-.2 2.7.3.7.7.1 1-1.5.6-2.9.1-3.6-.8-1.2zM461.5 410c-.4.6-1.3.9-2.1.6-2-.8-2.6 1-.8 2.4 1.1 1 1.8 1 2.6.2.7-.7.8-1.2.3-1.2-.6 0-.3-.4.5-1 .8-.5 1.2-1.2.8-1.5-.3-.4-.9-.1-1.3.5zm-1 2.8c-.3.3-1.1 0-1.8-.7-.9-1-.8-1.1.6-.5 1 .3 1.5.9 1.2 1.2zM31 410.4c0 .2.8 1 1.8 1.7 1.5 1.3 1.6 1.2.3-.4s-2.1-2.1-2.1-1.3zM464 412c-1.2.8-1.3 1.1-.2 2.2s1.3 1 1-.2c-.2-.8.3-1.4 1-1.2.8.1 1.1-.2.7-.8-.7-1.2-.6-1.2-2.5 0zM35 412.4c0 .3.9 1 2 1.6 1.1.6 2 .8 2 .6 0-.3-.9-1-2-1.6-1.1-.6-2-.8-2-.6zM174.7 414.7c-1.3 1.6-1.4 2.1-.2 3.7.8 1 1.2 2.3.9 2.7-.3.5.2.6 1 .3.9-.3 1.6-1 1.6-1.6 0-.5.5-.6 1-.3.6.4.7 1.1.4 1.7-.4.7-.2.8.5.4.9-.6.9-1.1 0-2.2-.6-.8-.9-1.7-.5-2.1.3-.4 1.2.2 2 1.2 1 1.4 1.5 1.5 2.1.5.6-.9.4-1.1-.5-.5-.9.6-1 .2-.5-1.5.6-1.9.4-2.2-1-1.6-1.1.4-2.5 0-3.5-.9-1.5-1.4-1.8-1.3-3.3.2zm3.2 3.5c-1 1.9-1.1 1.9-2.4.1-1.7-2.3 0-5 2.1-3.2 1 .8 1.1 1.6.3 3.1z"/><path d="M175.6 415.9c-.4.5-.2 1.2.3 1.5.5.4 1.2.2 1.5-.3.4-.5.2-1.2-.3-1.5-.5-.4-1.2-.2-1.5.3zM46.5 414.9c-.3.5-.1 1.2.5 1.6.6.4.8 1.1.5 1.6-.4.5-.1.9.4.9 1.4 0 1.4-1.7.1-2.5-.6-.4-.8-1.1-.5-1.6.4-.5.4-.9.1-.9-.3 0-.7.4-1.1.9zM456.3 414.7c-1.6.6-1.7 2.4-.2 2 .6-.1 1.4.4 1.6 1.1.3.8-.1 1-1.1.6-.9-.3-1.6-.2-1.6.4 0 1.2 1.8 1.1 3.9-.2 1.1-.7 1.3-.5.9.6-.4.8 0 1.5.7 1.5 1 0 1.1-.5.4-1.9-.5-1-1.4-1.8-2-1.8-.6 0-.8-.4-.4-.9.7-1.2-.6-2-2.2-1.4zM49.5 416c.3.5 1.1 1 1.6 1 .6 0 .7-.5.4-1-.3-.6-1.1-1-1.6-1-.6 0-.7.4-.4 1zM322.7 416.6c.6 1.7 5.1 3.5 5.8 2.4.4-.6 1.2-1 1.8-1 .7.1.1 1-1.2 2.1s-2.1 2.3-1.7 2.7c.4.4 1.2-.1 1.7-1 .6-1 1.6-1.5 2.7-1.2 1.5.5 1.5.4.2-.6s-1.1-1.1.7-.7c1.6.4 2 .1 1.6-1.2-.3-1 .4-.6 1.8.9s2 1.8 1.6.8c-.4-1.2-.1-1.6 1.4-1.5 1 .1 1.9.5 1.9 1.1 0 .5.9.1 2-.9s2-1.3 2-.7c0 .6-1 1.8-2.2 2.6-1.2.9-1.7 1.6-1.1 1.6.7 0 1.5-.5 1.8-1 .4-.7 1.3-.6 2.7.1 1.2.6 1.8.7 1.4.1-.3-.5.2-1.3 1.1-1.6.9-.4 2-.2 2.3.4.5.8.9.6 1.3-.4.4-.9 1.2-1.6 1.9-1.6.9 0 .9.3 0 1.2-.7.7-1.2 1.6-1.2 2.1 0 .4 1.1-.5 2.5-2 1.3-1.5 2.5-2.3 2.5-1.7 0 .6-.7 1.7-1.5 2.4s-1.5 1.7-1.5 2.3c0 .6.7.1 1.6-1.1.8-1.2 2-2.2 2.5-2.2 1.3 0 4 2.6 3.4 3.2-.3.3.2.5 1 .5 1.2 0 1.1-.5-.5-2.2-1.1-1.2-1.7-2.4-1.4-2.8.4-.4 1.6.3 2.7 1.6l1.9 2.2-.6-2.2c-.6-2-.5-2.1 1.8-1 1.3.6 2.2 1.5 2 1.9-.3.5 0 .8.6.8s.9-.8.6-1.8c-.5-1.5-.1-1.8 2.4-1.8 1.7 0 2.9.4 2.7 1-.2.6-1.3 1-2.3.8-1.1-.2-1.5.1-.9.5 1.6 1.3 1.8 3.6.2 3-.7-.3-1.4 0-1.4.7 0 .6.8 1.2 1.7 1.2 1 0 1.7-.7 1.5-1.6-.1-.8.2-2 .7-2.7 1.2-1.4 7.1 1.3 6.2 2.9-.4.7-.2.8.5.4 1.5-1 .5-2.5-2.5-3.6-1.3-.5-2.4-1.4-2.4-2 0-1.1 3.1.4 6.3 3 2.5 2 6.7 2.2 6 .3-.4-1.1-.8-1.1-1.3-.3-.8 1.4-1.8 1.1-4.2-.9-2.7-2.3-2.1-3.6.7-1.7 1.5 1 2.5 1.2 2.5.6s.4-.9.9-.5c.5.3 1.2.1 1.6-.4.8-1.4 4.6-.9 4.1.6-.5 1.3 1.9.7 4.2-1 1.1-.8 1.2-.4.8 1.9-.4 1.6-.3 2.2 0 1.4.8-1.7 2.4-3 3.8-3 .6 0 .5.5-.2 1.2s-1.2 1.6-1.2 2.1c0 .4 1.1-.5 2.5-2 1.3-1.5 2.5-2.3 2.5-1.7 0 .6-.7 1.7-1.5 2.4s-1.5 1.7-1.5 2.3c0 .6.7.1 1.6-1.1.8-1.2 2-2.2 2.5-2.2 1.3 0 4 2.6 3.4 3.2-.3.3.2.5 1 .5 1.2 0 1.1-.5-.5-2.2-1.1-1.2-1.7-2.4-1.4-2.8.4-.4 1.6.3 2.7 1.6l1.9 2.2-.7-2.5c-.7-2.2-.6-2.3.9-1.1 1.3 1.1 1.9 1.1 3.1.1 1.8-1.5 2 .1.3 1.8-.8.8-.9 1.2-.1 1.2.6 0 1.4-.6 1.6-1.3.4-.9.8-.8 1.7.3 1 1.3 1.1 1.2.6-.4-.5-1.4-.2-1.7 1-1.2.8.3 2 .6 2.5.6.6 0 .7.4.4 1-.3.5-.1 1 .5 1 .7 0 .9-.9.5-2.3-.6-2-.4-2 1.9.6 1.4 1.5 2.6 2.4 2.6 2 0-.5-.5-1.4-1-1.9-.7-.7-.1-1.1 2-1.1s2.7.4 2 1.1c-.5.5-1 1.4-1 1.9s.9-.2 2.1-1.7c1.1-1.4 2.5-2.3 3.1-2 .5.3 0 1.2-1.1 2.1-1.2.8-2.1 2-2 2.6 0 .9.2.8.6-.1.9-2.3 4.2-3.4 5.8-1.9.8.8 1.1 1.8.7 2.2-.4.5-.1.5.6.1 1.1-.6 1-1.2-.4-2.7-2.1-2.4-.2-2.5 2.2-.2 1.6 1.6 1.6 1.6.9-.7-.6-2-.5-2.3.6-1.4.8.5 2.3 1 3.4 1 1.1-.1 2.5.8 3.2 1.9 1.1 1.8 1.1 1.7.8-1-.2-1.7-.4-3.4-.4-3.9-.1-.6-.7-.2-1.3.7-1.5 1.9-3.8 1.8-6.4-.3-1-.8-1.5-1-1.1-.3.4.6.3 1.4-.3 1.8-.5.3-1-.2-1-1.2 0-1.4-.2-1.5-.9-.4-.5.7-1.1.9-1.3.5-.3-.5-.3-.3-.1.4.1.8-.3 1.2-.9.9-.7-.2-1.2-.9-1.1-1.4.1-.5-.9-.9-2.2-.9-1.3 0-2.1.4-1.9.8.3.4 0 .8-.5.8-.6 0-1.1-.4-1.1-.8 0-.5-.7-.9-1.5-.9s-1.2.4-.9.9c.3.4 0 .8-.5.8-.6 0-1.1-.6-1.1-1.3 0-.8-.4-.7-1 .3-.9 1.3-1 1.3-1 0-.1-1.2-.3-1.1-1.1.2-.5 1-1.5 1.8-2.1 1.8-.7 0-.7-.4 0-1.3.9-1 .6-1.3-1.2-1.3-1.7 0-2.2.5-1.9 1.5.4 1.2.1 1.2-1-.2-1.3-1.5-1.5-1.6-2.1-.2-.3.8-1.1 1.5-1.7 1.5-.8 0-.8-.4-.1-1.3.9-1 .6-1.3-1.3-1.3-1.3 0-2.1.4-1.9.8.3.4 0 .8-.5.8-.6 0-1.1-.6-1.1-1.3 0-.9-.3-.8-.9.2-.5.7-1.1.9-1.3.5-.3-.5-.3-.3-.1.4.1.8-.3 1.2-.9.9-.7-.2-1.2-.9-1.1-1.4.1-.5-.9-.9-2.2-.9-1.3 0-2.1.4-1.9.8.3.4 0 .8-.5.8-.6 0-1.1-.6-1.1-1.3 0-.8-.4-.7-1 .3-.9 1.3-1 1.3-1 0-.1-1.2-.3-1.1-1.1.2-.5 1-1.5 1.8-2.1 1.8-.7 0-.7-.4.1-1.3.8-1.1.4-1.3-2.2-1.3-1.7.1-3.5.5-3.9 1.1-.5.6-.8.4-.8-.5-.1-1.2-.3-1.1-1.1.2-.5 1-1.5 1.8-2.1 1.8-.7 0-.7-.4 0-1.3.8-1 .6-1.3-.8-1.4-1-.1-2.4.5-3.1 1.3-.6.8-1.6 1.4-2.1 1.4-.7 0-.6-.5 0-1.3.9-1.1.3-1.3-3.1-1.3-2.3.1-4.5.5-4.9 1.1-.5.6-.8.4-.8-.5-.1-1.2-.3-1.1-1.1.2-.5 1-1.5 1.8-2.1 1.8-.7 0-.7-.4 0-1.3.9-1 .6-1.3-1.3-1.3-1.3 0-2.1.4-1.9.8.3.4 0 .8-.5.8-.6 0-1.1-.6-1.1-1.3 0-.9-.3-.8-.9.2-.5.7-1.1.9-1.3.5-.3-.5-.3-.3-.1.4.1.8-.3 1.2-.9.9-.7-.2-1.2-.9-1.1-1.4.1-.5-.9-.9-2.2-.9-1.3 0-2.1.4-1.9.8.3.4.1.8-.5.8-.5 0-1.1-.5-1.3-1.2-.3-.9-.6-.9-1.2 0-.4.7-.2 1.2.4 1.2.6 0 .9.4.5 1-.9 1.5-3.4 0-2.8-1.8.4-1.5.3-1.5-.6-.2-1 1.3-1.2 1.3-2.1 0-.9-1.3-1-1.3-1 0 0 1.2-.2 1.2-.9.2-.7-1.1-.9-1.1-1.4.2-.4.9-1.2 1.6-1.8 1.6-.8 0-.8-.4-.1-1.3.9-1 .6-1.3-1.3-1.3-1.3 0-2.1.4-1.9.8.3.4 0 .8-.5.8-.6 0-1.1-.6-1.1-1.3 0-.8-.4-.7-1 .3-.9 1.3-1 1.3-1 0-.1-1.2-.3-1.1-1.1.2-.5 1-1.5 1.8-2.1 1.8-.7 0-.7-.4 0-1.3.8-1-.1-1.2-4.2-1.2-3.6 0-5.2.3-4.9 1.1zm6.3.5c0 1.5-1.8 1.8-3.4.6-1.6-1.2-1.5-1.3.8-1.3 1.4 0 2.6.3 2.6.7zm18.8 2c-2 1.3-2.8 1.1-2.2-.5.3-.8 1.2-1.2 2.1-.9 1.2.5 1.2.7.1 1.4z"/><path d="M448 416c1.8 1.2 3 1.3 3 .2 0-.4-1-.9-2.2-.9-1.8-.2-2 0-.8.7zM461 416c0 .5.5 1 1 1 .6 0 1-.5 1-1 0-.6-.4-1-1-1-.5 0-1 .4-1 1zM44 418c-.9.6-1 1-.3 1 .6 0 1.5-.5 1.8-1 .8-1.2.4-1.2-1.5 0zM57.3 418.7c0 1.2.4 2 .8 1.7.4-.2 1 .2 1.2.8.3.7.6.8.6.2.1-.5-.5-1.9-1.3-3-1.4-1.9-1.5-1.8-1.3.3zM463.9 417.2c-.5 1.8-.6 3.8-.1 3.4.7-.8 1.2-3.6.6-3.6-.2 0-.4.1-.5.2zM61 419.1c0 .5.5.7 1 .4.6-.3 1-.8 1-1.1 0-.2-.4-.4-1-.4-.5 0-1 .5-1 1.1zM189 420.1c0 .5.5.7 1 .4.6-.3 1-.8 1-1.1 0-.2-.4-.4-1-.4-.5 0-1 .5-1 1.1zM323.5 420c.3.6.1 1-.6 1s-1 .3-.6.6c.3.3 1.3.2 2.2-.4 1.6-.8 1.6-.9.1-1.5-1-.4-1.5-.3-1.1.3zM390 420.1c0 .5.5.7 1 .4.6-.3 1-.8 1-1.1 0-.2-.4-.4-1-.4-.5 0-1 .5-1 1.1zM62 421.1c-1.3.9-1.3 1 .1.6.9-.3 2.3 0 3 .6 1.1 1 1.1.9 0-.6-.7-.9-1.4-1.7-1.5-1.7 0 0-.8.5-1.6 1.1zM338.6 421.7c-.6 1.4-.5 1.5.5.6.7-.7 1-1.5.7-1.8-.3-.3-.9.2-1.2 1.2zM366.7 421.3c-.3.8.1 1.4.8 1.4.7 0 1.1-.6.8-1.4-.3-.7-.6-1.3-.8-1.3-.2 0-.5.6-.8 1.3zM395.6 421.3c.3 1 .9 1.5 1.2 1.2.3-.3 0-1.1-.7-1.8-1-.9-1.1-.8-.5.6zM414.7 421.3c-.3.8.1 1.4.8 1.4.7 0 1.1-.6.8-1.4-.3-.7-.6-1.3-.8-1.3-.2 0-.5.6-.8 1.3zM422.7 421.3c-.3.8.1 1.4.8 1.4.7 0 1.1-.6.8-1.4-.3-.7-.6-1.3-.8-1.3-.2 0-.5.6-.8 1.3zM446.7 421.3c-.3.8.1 1.4.9 1.4.7 0 1.1-.4.8-.8-.2-.4.2-1 .8-1.2.8-.4.7-.6-.3-.6-.9-.1-1.9.5-2.2 1.2zM55.3 422.5c0 .8.4 1.2.9.9.5-.3.6-1 .3-1.5-.9-1.3-1.2-1.1-1.2.6zM181.9 421.2c-.5 1.8-.6 3.8-.1 3.4.7-.8 1.2-3.6.6-3.6-.2 0-.4.1-.5.2zM349.3 422.5c0 .8.4 1.2.9.9.5-.3.6-1 .3-1.5-.9-1.3-1.2-1.1-1.2.6zM357.5 421.9c-.3.5 0 1.3.6 1.7.8.5.9.3.4-.6-.6-1-.4-1.2.9-.7 1 .4 1.5.3 1.1-.3-.8-1.3-2.2-1.3-3-.1zM391.5 421.9c-.3.5 0 1.3.6 1.7.8.5.9.3.4-.6-.6-1-.4-1.2.9-.7 1 .4 1.5.3 1.1-.3-.8-1.3-2.2-1.3-3-.1zM405.5 421.9c-.3.5 0 1.3.6 1.7.8.5.9.3.4-.6-.6-1-.4-1.2.9-.7 1 .4 1.5.3 1.1-.3-.8-1.3-2.2-1.3-3-.1zM427.6 421.9c-.3.5.1 1.4.8 2 1 .9 1.6.9 2.1.1.4-.6.1-.9-.7-.8-.7.2-1.2-.3-1-1 .2-1.4-.4-1.6-1.2-.3zM437.5 421.9c-.3.5 0 1.3.6 1.7.8.5.9.3.4-.6-.6-1-.4-1.2.9-.7 1 .4 1.5.3 1.1-.3-.8-1.3-2.2-1.3-3-.1zM456 422c.8.5 2 1 2.5 1 .6 0 .3-.5-.5-1s-1.9-1-2.5-1c-.5 0-.3.5.5 1zM84.7 423.5c-.4.8-.2 1.5.3 1.5.6 0 1-.6 1-1.3 0-.8.4-.7 1.1.3.9 1.2 1 1.2.7.1-.6-2.1-2.4-2.5-3.1-.6zM418.8 422.7c.7.3 1.6.2 1.9-.1.4-.3-.2-.6-1.3-.5-1.1 0-1.4.3-.6.6zM61.4 423.8c.4.3 1.4.7 2.2.8.9.1 1.3 0 1-.4-.4-.3-1.4-.7-2.2-.8-.9-.1-1.3 0-1 .4zM73 424c.8.5 2 1 2.5 1 .6 0 .3-.5-.5-1s-1.9-1-2.5-1c-.5 0-.3.5.5 1zM178 424c-.9.6-1 1-.3 1 .6 0 1.5-.5 1.8-1 .8-1.2.4-1.2-1.5 0zM321.5 424c.3.5.8 1 1.1 1 .2 0 .4-.5.4-1 0-.6-.5-1-1.1-1-.5 0-.7.4-.4 1zM333.5 424c.3.5.8 1 1.1 1 .2 0 .4-.5.4-1 0-.6-.5-1-1.1-1-.5 0-.7.4-.4 1zM351.5 423.9c-.3.5-.2 1.2.3 1.5.5.3.9-.1.9-.9 0-1.7-.3-1.9-1.2-.6zM102.6 425.1c.5.9-3.5 2.4-5.8 2-.9-.1-1.9.2-2.2.8-.3.5.3.7 1.4.4 1.6-.4 1.9-.2 1.4 1.3-.6 1.8-.6 1.8.9-.1 1.3-1.7 1.7-1.8 3.3-.5 1.7 1.4 1.8 1.3.6-.1-1.1-1.5-.9-1.7 1.7-1.5 1.7.1 3.7 1 4.5 2.1 1.5 2 1.5 2 .9-.2-.3-1.2-1.4-2.5-2.4-2.8-1.1-.4-1.7-1-1.5-1.4.3-.4-.4-.7-1.4-.7-1 0-1.7.3-1.4.7zM341.5 425.9c-.3.5-.2 1.2.3 1.5.5.3.9-.1.9-.9 0-1.7-.3-1.9-1.2-.6zM355 426.1c0 .5.5.7 1 .4.6-.3 1-.8 1-1.1 0-.2-.4-.4-1-.4-.5 0-1 .5-1 1.1zM385.3 426.5c0 .8.4 1.2.9.9.5-.3.6-1 .3-1.5-.9-1.3-1.2-1.1-1.2.6zM403 426.1c0 .5.5.7 1 .4.6-.3 1-.8 1-1.1 0-.2-.4-.4-1-.4-.5 0-1 .5-1 1.1zM435 426.1c0 .5.5.7 1 .4.6-.3 1-.8 1-1.1 0-.2-.4-.4-1-.4-.5 0-1 .5-1 1.1zM85.6 427.7c-.6 1.4-.5 1.5.5.6.7-.7 1-1.5.7-1.8-.3-.3-.9.2-1.2 1.2zM114.6 426.9c-.4.5-.1 1.3.5 1.7.8.4.9.3.5-.4s-.3-1.2.3-1.2c.5 0 1.2.7 1.4 1.5.4 1.2.5 1.1.3-.1-.1-2-2.1-3-3-1.5zM153.6 427.5c-.3.8-.1 1.5.4 1.5.6 0 1-.7 1-1.5s-.2-1.5-.4-1.5-.6.7-1 1.5zM77 428.1c0 .5.5.7 1 .4.6-.3 1-.8 1-1.1 0-.2-.4-.4-1-.4-.5 0-1 .5-1 1.1zM158.8 427.7c.7.3 1.6.2 1.9-.1.4-.3-.2-.6-1.3-.5-1.1 0-1.4.3-.6.6zM81.6 429.8c-.3.5.1.9.9.9s1.2-.4.9-.9c-.3-.4-.7-.8-.9-.8-.2 0-.6.4-.9.8z"/><path d="M104.6 430.2c.3.5 1 .6 1.5.3 1.3-.9 1.1-1.2-.6-1.2-.8 0-1.2.4-.9.9zM113.5 429.9c.6 1.1.4 1.3-.8.8-2.3-.9-2.1 0 .2 1.3 1.5.7 1.9.7 1.7-.5-.1-.8-.6-1.8-1.1-2.2-.4-.5-.5-.2 0 .6zM141.5 429.9c-.6 1.1 1.3 2.6 2.2 1.7.4-.3.1-.6-.6-.6s-.9-.5-.6-1c.3-.6.4-1 .1-1-.3 0-.7.4-1.1.9zM157 430.1c0 .5.5.7 1 .4.6-.3 1-.8 1-1.1 0-.2-.4-.4-1-.4-.5 0-1 .5-1 1.1zM126.5 432.1c-.3.4.2.6 1 .5 2.1-.3 2.8-1.3 1-1.3-.9 0-1.8.4-2 .8zM117 433.4c0 .2.7.7 1.6 1 .8.3 1.2.2.9-.4-.6-1-2.5-1.4-2.5-.6zM127 435.4c0 .2.7.7 1.6 1 .8.3 1.2.2.9-.4-.6-1-2.5-1.4-2.5-.6z"/></svg>