<svg xmlns="http://www.w3.org/2000/svg" width="2452" height="254" fill="none"  xmlns:v="https://vecta.io/nano"><path d="M63.304 200.472c-10.752 0-21.792-1.248-33.12-3.744s-21.12-6.336-29.376-11.52l1.728-42.624H29.32l5.76 35.424c4.416 1.728 8.832 3.072 13.248 4.032 4.416.768 9.312 1.152 14.688 1.152 10.368 0 18.24-2.592 23.616-7.776 5.376-5.376 8.064-11.904 8.064-19.584s-2.016-13.632-6.048-17.856c-3.84-4.224-10.08-8.256-18.72-12.096l-12.384-5.472C40.648 112.536 27.496 103.8 18.088 94.2 8.872 84.6 4.264 71.832 4.264 55.896c0-17.28 6.432-30.816 19.296-40.608C36.616 5.304 53.992.312 75.688.312c10.368 0 20.256 1.344 29.664 4.032 9.6 2.496 17.856 6.048 24.768 10.656l-2.304 40.32H101.32l-5.472-33.984c-3.072-1.152-6.144-2.016-9.216-2.592-3.072-.768-6.432-1.152-10.08-1.152-8.256 0-15.264 2.4-21.024 7.2s-8.64 11.136-8.64 19.008c0 7.68 2.208 13.824 6.624 18.432 4.608 4.416 11.136 8.544 19.584 12.384l13.536 6.048c18.24 8.256 31.392 16.992 39.456 26.208 8.256 9.024 12.384 20.832 12.384 35.424 0 16.896-6.432 30.816-19.296 41.76C106.504 195 87.88 200.472 63.304 200.472zM206.8 199.32c-12.864 0-22.944-3.072-30.24-9.216-7.296-6.336-10.944-16.608-10.944-30.816v-13.824c.192-4.416.288-9.408.288-14.976V75.48h-18.72V58.488l21.312-2.88 14.4-40.32h29.376l-.576 40.608h30.24V75.48h-30.24v80.64c0 6.72 1.344 11.712 4.032 14.976 2.88 3.072 6.432 4.608 10.656 4.608 4.992 0 10.176-2.112 15.552-6.336l7.2 6.912c-3.84 7.296-9.216 12.96-16.128 16.992-6.72 4.032-15.456 6.048-26.208 6.048zM325.597 66.264c-5.376 0-10.368 3.36-14.976 10.08-4.416 6.528-6.912 18.624-7.488 36.288h24.48c6.912 0 11.52-1.344 13.824-4.032 2.496-2.88 3.744-7.584 3.744-14.112 0-9.6-1.92-16.704-5.76-21.312s-8.448-6.912-13.824-6.912zm.576 133.056c-14.016 0-26.4-2.88-37.152-8.64-10.752-5.952-19.2-14.4-25.344-25.344-6.144-11.136-9.216-24.384-9.216-39.744 0-16.128 3.552-29.664 10.656-40.608 7.296-11.136 16.608-19.488 27.936-25.056 11.328-5.76 23.136-8.64 35.424-8.64 12.672 0 23.424 2.688 32.256 8.064 9.024 5.376 15.84 12.672 20.448 21.888 4.608 9.024 6.912 19.392 6.912 31.104 0 5.568-.576 10.656-1.728 15.264h-83.232c.96 15.168 5.088 26.4 12.384 33.696 7.488 7.104 16.224 10.656 26.208 10.656 7.872 0 14.592-1.44 20.16-4.32 5.568-3.072 10.464-6.816 14.688-11.232l10.08 9.216c-5.952 11.328-14.016 19.776-24.192 25.344s-22.272 8.352-36.288 8.352zM491.069 68.568V55.896h54.432v12.672l-16.704 3.168-47.52 123.84h-21.888l-51.84-124.128-14.112-2.88V55.896h81.792v12.672l-18.144 3.744 27.072 73.728 25.056-74.016-18.144-3.456zm127.872-2.304c-5.376 0-10.368 3.36-14.976 10.08-4.416 6.528-6.912 18.624-7.488 36.288h24.48c6.912 0 11.52-1.344 13.824-4.032 2.496-2.88 3.744-7.584 3.744-14.112 0-9.6-1.92-16.704-5.76-21.312s-8.448-6.912-13.824-6.912zm.576 133.056c-14.016 0-26.4-2.88-37.152-8.64-10.752-5.952-19.2-14.4-25.344-25.344-6.144-11.136-9.216-24.384-9.216-39.744 0-16.128 3.552-29.664 10.656-40.608 7.296-11.136 16.608-19.488 27.936-25.056 11.328-5.76 23.136-8.64 35.424-8.64 12.672 0 23.424 2.688 32.256 8.064 9.024 5.376 15.84 12.672 20.448 21.888 4.608 9.024 6.912 19.392 6.912 31.104 0 5.568-.576 10.656-1.728 15.264h-83.232c.96 15.168 5.088 26.4 12.384 33.696 7.488 7.104 16.224 10.656 26.208 10.656 7.872 0 14.592-1.44 20.16-4.32 5.568-3.072 10.464-6.816 14.688-11.232l10.08 9.216c-5.952 11.328-14.016 19.776-24.192 25.344s-22.272 8.352-36.288 8.352zm78.188-4.32v-13.536l15.552-3.456c.192-6.912.288-14.4.288-22.464V134.52v-16.704c0-7.872-.096-13.92-.288-18.144 0-4.416-.192-9.504-.576-15.264l-17.568-2.592V70.584l56.736-19.296 5.184 3.168 1.728 20.736c7.488-8.832 14.88-14.976 22.176-18.432 7.488-3.648 15.456-5.472 23.904-5.472 12.48 0 22.464 4.128 29.952 12.384 7.68 8.256 11.52 20.64 11.52 37.152v33.696 21.6l.288 22.464 14.4 2.88V195h-76.032v-13.536l14.976-3.168.288-22.464V134.52v-30.24c0-9.216-1.248-15.648-3.744-19.296-2.496-3.84-6.528-5.76-12.096-5.76-7.488 0-15.744 3.456-24.768 10.368v44.928 21.312l.288 22.752 13.536 2.88V195h-75.744zM932.776 59.352l1.152-53.568h169.052l.87 53.568h-23.91l-5.18-37.44h-31.68l-.58 36.288v36.864 10.368 35.712l.58 35.712 24.77 2.592V195h-98.786v-15.552l24.48-2.592c.384-11.712.576-23.52.576-35.424V105.72 95.064 58.776a1180.15 1180.15 0 0 0-.576-36.864h-31.392l-5.472 37.44h-23.904zm234.044 6.912c-5.38 0-10.37 3.36-14.98 10.08-4.42 6.528-6.91 18.624-7.49 36.288h24.48c6.91 0 11.52-1.344 13.83-4.032 2.49-2.88 3.74-7.584 3.74-14.112 0-9.6-1.92-16.704-5.76-21.312s-8.45-6.912-13.82-6.912zm.57 133.056c-14.01 0-26.4-2.88-37.15-8.64-10.75-5.952-19.2-14.4-25.34-25.344-6.15-11.136-9.22-24.384-9.22-39.744 0-16.128 3.55-29.664 10.66-40.608 7.29-11.136 16.6-19.488 27.93-25.056 11.33-5.76 23.14-8.64 35.43-8.64 12.67 0 23.42 2.688 32.25 8.064 9.03 5.376 15.84 12.672 20.45 21.888 4.61 9.024 6.91 19.392 6.91 31.104 0 5.568-.57 10.656-1.73 15.264h-83.23c.96 15.168 5.09 26.4 12.39 33.696 7.48 7.104 16.22 10.656 26.2 10.656 7.88 0 14.6-1.44 20.16-4.32 5.57-3.072 10.47-6.816 14.69-11.232l10.08 9.216c-5.95 11.328-14.01 19.776-24.19 25.344s-22.27 8.352-36.29 8.352zm77.9-4.32v-13.536l15.84-3.168.29-22.752V134.52v-16.992c0-5.376-.1-9.792-.29-13.248 0-3.456-.09-6.624-.29-9.504 0-3.072-.09-6.528-.28-10.368l-17.57-2.592V70.584l56.73-19.296 5.19 3.168 2.59 33.984c4.03-12.288 9.7-21.504 16.99-27.648 7.3-6.336 14.5-9.504 21.6-9.504 6.34 0 11.81 1.824 16.42 5.472 4.61 3.456 7.49 8.736 8.64 15.84-.19 7.488-2.21 13.344-6.05 17.568-3.84 4.032-8.64 6.048-14.4 6.048-8.06 0-15.46-4.512-22.18-13.536l-1.72-2.304c-4.23 4.032-8.16 9.12-11.81 15.264-3.46 6.144-5.95 12.576-7.49 19.296v19.584 20.448l.29 21.6 22.75 4.896V195h-85.25zm134.16 0v-13.536l15.56-3.456c.19-6.912.28-14.4.28-22.464V134.52v-16.704c0-7.872-.09-13.92-.28-18.144 0-4.416-.2-9.504-.58-15.264l-17.57-2.592V70.584l56.74-19.296 5.18 3.168 1.73 20.736c7.49-8.832 14.88-14.976 22.18-18.432 7.48-3.648 15.45-5.472 23.9-5.472 12.48 0 22.46 4.128 29.95 12.384 7.68 8.256 11.52 20.64 11.52 37.152v33.696 21.6l.29 22.464 14.4 2.88V195h-76.03v-13.536l14.97-3.168c.2-7.104.29-14.592.29-22.464V134.52v-30.24c0-9.216-1.25-15.648-3.74-19.296-2.5-3.84-6.53-5.76-12.1-5.76-7.49 0-15.74 3.456-24.77 10.368v44.928 21.312l.29 22.752 13.54 2.88V195h-75.75zm248.9-128.736c-5.38 0-10.37 3.36-14.98 10.08-4.41 6.528-6.91 18.624-7.49 36.288h24.48c6.92 0 11.52-1.344 13.83-4.032 2.49-2.88 3.74-7.584 3.74-14.112 0-9.6-1.92-16.704-5.76-21.312s-8.45-6.912-13.82-6.912zm.57 133.056c-14.01 0-26.4-2.88-37.15-8.64-10.75-5.952-19.2-14.4-25.34-25.344-6.15-11.136-9.22-24.384-9.22-39.744 0-16.128 3.55-29.664 10.66-40.608 7.29-11.136 16.61-19.488 27.93-25.056 11.33-5.76 23.14-8.64 35.43-8.64 12.67 0 23.42 2.688 32.25 8.064 9.03 5.376 15.84 12.672 20.45 21.888 4.61 9.024 6.91 19.392 6.91 31.104 0 5.568-.57 10.656-1.72 15.264h-83.24c.96 15.168 5.09 26.4 12.39 33.696 7.49 7.104 16.22 10.656 26.21 10.656 7.87 0 14.59-1.44 20.16-4.32 5.56-3.072 10.46-6.816 14.68-11.232l10.08 9.216c-5.95 11.328-14.01 19.776-24.19 25.344-10.17 5.568-22.27 8.352-36.29 8.352zm77.9-4.32v-13.536l15.84-3.168.29-22.752V134.52v-16.992c0-5.376-.1-9.792-.29-13.248 0-3.456-.09-6.624-.29-9.504 0-3.072-.09-6.528-.28-10.368l-17.57-2.592V70.584l56.73-19.296 5.19 3.168 2.59 33.984c4.03-12.288 9.7-21.504 16.99-27.648 7.3-6.336 14.5-9.504 21.6-9.504 6.34 0 11.81 1.824 16.42 5.472 4.61 3.456 7.49 8.736 8.64 15.84-.19 7.488-2.21 13.344-6.05 17.568-3.84 4.032-8.64 6.048-14.4 6.048-8.06 0-15.46-4.512-22.18-13.536l-1.72-2.304c-4.23 4.032-8.16 9.12-11.81 15.264-3.46 6.144-5.95 12.576-7.49 19.296v19.584 20.448l.29 21.6 22.75 4.896V195h-85.25zm164.83-16.128c0 13.056-3.07 24.672-9.21 34.848-5.95 10.176-13.54 18.528-22.75 25.056-9.03 6.72-18.15 11.52-27.36 14.4l-4.04-12.096c9.6-4.992 17.48-10.848 23.62-17.568 6.34-6.72 11.23-13.92 14.69-21.6l-10.08-5.184c-5.95-3.264-10.18-7.008-12.67-11.232-2.31-4.416-3.46-8.736-3.46-12.96 0-7.104 2.4-13.056 7.2-17.856s10.85-7.2 18.14-7.2c4.04 0 7.78.576 11.24 1.728 3.45 1.152 6.91 3.264 10.36 6.336 1.73 4.416 2.88 8.352 3.46 11.808.58 3.264.86 7.104.86 11.52zm88.9-157.536V5.784h95.04v15.552l-23.9 2.304-.58 35.712v35.712 15.264 33.12l.58 35.136h49.82l7.78-40.032h23.32L2109.73 195h-149.18v-15.552l21.6-2.304c.38-11.712.58-23.136.58-34.272v-31.104-16.704-35.712a1101.1 1101.1 0 0 0-.58-35.712l-21.6-2.304zm165.38 0V5.784h95.04v15.552l-23.91 2.304-.57 35.712v35.712 15.264 33.12l.57 35.136h49.83l7.77-40.032h23.33L2275.11 195h-149.18v-15.552l21.6-2.304c.38-11.712.57-23.136.57-34.272v-31.104-16.704-35.712a1101.39 1101.39 0 0 0-.57-35.712l-21.6-2.304zm263.63 179.136c-18.44 0-35.24-3.648-50.4-10.944-15.17-7.488-27.27-18.624-36.29-33.408-8.83-14.784-13.25-33.408-13.25-55.872 0-17.088 2.69-31.872 8.06-44.352 5.57-12.48 13.06-22.848 22.47-31.104 9.6-8.256 20.54-14.4 32.83-18.432s25.15-6.048 38.59-6.048c10.95 0 20.93 1.248 29.95 3.744 9.03 2.304 17.86 5.856 26.5 10.656l1.15 44.64h-21.89l-8.35-37.728c-6.53-3.264-13.44-4.896-20.73-4.896-10.18 0-19.68 2.88-28.52 8.64-8.64 5.76-15.64 14.88-21.02 27.36-5.38 12.288-8.06 28.224-8.06 47.808s2.59 35.52 7.77 47.808c5.19 12.096 12 21.024 20.45 26.784 8.64 5.76 18.05 8.64 28.22 8.64 4.04 0 8.07-.48 12.1-1.44s8.06-2.304 12.1-4.032l8.06-36.864h21.89l-1.15 44.352c-7.68 4.224-16.61 7.68-26.79 10.368-9.98 2.88-21.21 4.32-33.69 4.32z" fill="#206a5d"/></svg>